Kablammov0.13-D.ufo
<glyph name="exclam" format="2">
  <advance width="345"/>
  <unicode hex="0021"/>
  <outline>
    <contour>
      <point x="94" y="334" type="curve" smooth="yes"/>
      <point x="89" y="209"/>
      <point x="283" y="215"/>
      <point x="273" y="340" type="curve" smooth="yes"/>
      <point x="264" y="455"/>
      <point x="243" y="658"/>
      <point x="232" y="754" type="curve" smooth="yes"/>
      <point x="224" y="821"/>
      <point x="134" y="820"/>
      <point x="127" y="753" type="curve" smooth="yes"/>
      <point x="121" y="696"/>
      <point x="115" y="632"/>
      <point x="111" y="568" type="curve"/>
      <point x="177" y="567"/>
      <point x="189" y="560"/>
      <point x="188" y="529" type="curve" smooth="yes"/>
      <point x="187" y="499"/>
      <point x="179" y="494"/>
      <point x="106" y="498" type="curve"/>
      <point x="105" y="481"/>
      <point x="104" y="464"/>
      <point x="103" y="448" type="curve"/>
      <point x="193" y="443"/>
      <point x="205" y="436"/>
      <point x="203" y="410" type="curve" smooth="yes"/>
      <point x="201" y="381"/>
      <point x="194" y="376"/>
      <point x="98" y="382" type="curve"/>
      <point x="96" y="365"/>
      <point x="95" y="349"/>
    </contour>
    <contour>
      <point x="186" y="-1" type="curve" smooth="yes"/>
      <point x="245" y="-1"/>
      <point x="282" y="25"/>
      <point x="282" y="84" type="curve" smooth="yes"/>
      <point x="282" y="136"/>
      <point x="245" y="169"/>
      <point x="179" y="169" type="curve" smooth="yes"/>
      <point x="117" y="169"/>
      <point x="79" y="139"/>
      <point x="79" y="84" type="curve" smooth="yes"/>
      <point x="79" y="34"/>
      <point x="113" y="-1"/>
    </contour>
    <contour>
      <point x="197" y="360" type="curve" smooth="yes"/>
      <point x="185" y="359"/>
      <point x="177" y="350"/>
      <point x="177" y="320" type="curve" smooth="yes"/>
      <point x="177" y="293"/>
      <point x="184" y="281"/>
      <point x="194" y="281" type="curve" smooth="yes"/>
      <point x="201" y="281"/>
      <point x="209" y="281"/>
      <point x="215" y="281" type="curve" smooth="yes"/>
      <point x="232" y="282"/>
      <point x="242" y="292"/>
      <point x="242" y="321" type="curve" smooth="yes"/>
      <point x="243" y="350"/>
      <point x="236" y="358"/>
      <point x="222" y="360" type="curve" smooth="yes"/>
      <point x="212" y="361"/>
      <point x="203" y="361"/>
    </contour>
    <contour>
      <point x="219" y="501" type="curve" smooth="yes"/>
      <point x="213" y="501"/>
      <point x="206" y="497"/>
      <point x="205" y="479" type="curve" smooth="yes"/>
      <point x="204" y="458"/>
      <point x="208" y="452"/>
      <point x="211" y="452" type="curve" smooth="yes"/>
      <point x="215" y="451"/>
      <point x="218" y="449"/>
      <point x="224" y="450" type="curve" smooth="yes"/>
      <point x="230" y="450"/>
      <point x="237" y="453"/>
      <point x="238" y="472" type="curve" smooth="yes"/>
      <point x="240" y="495"/>
      <point x="234" y="499"/>
      <point x="229" y="500" type="curve" smooth="yes"/>
      <point x="225" y="501"/>
      <point x="222" y="501"/>
    </contour>
  </outline>
</glyph>
<glyph name="numbersign" format="2">
  <advance width="743"/>
  <unicode hex="0023"/>
  <outline>
    <contour>
      <point x="286" y="704" type="curve" smooth="yes"/>
      <point x="233" y="476"/>
      <point x="182" y="244"/>
      <point x="138" y="18" type="curve" smooth="yes"/>
      <point x="130" y="-25"/>
      <point x="140" y="-45"/>
      <point x="169" y="-49" type="curve" smooth="yes"/>
      <point x="197" y="-53"/>
      <point x="222" y="-41"/>
      <point x="230" y="-2" type="curve" smooth="yes"/>
      <point x="280" y="226"/>
      <point x="324" y="453"/>
      <point x="367" y="684" type="curve" smooth="yes"/>
      <point x="374" y="724"/>
      <point x="369" y="751"/>
      <point x="341" y="756" type="curve" smooth="yes"/>
      <point x="313" y="761"/>
      <point x="296" y="746"/>
    </contour>
    <contour>
      <point x="489" y="616" type="curve" smooth="yes"/>
      <point x="468" y="426"/>
      <point x="451" y="240"/>
      <point x="439" y="49" type="curve" smooth="yes"/>
      <point x="436" y="8"/>
      <point x="453" y="-11"/>
      <point x="479" y="-13" type="curve" smooth="yes"/>
      <point x="504" y="-16"/>
      <point x="525" y="0"/>
      <point x="528" y="36" type="curve" smooth="yes"/>
      <point x="544" y="227"/>
      <point x="559" y="413"/>
      <point x="572" y="602" type="curve" smooth="yes"/>
      <point x="575" y="649"/>
      <point x="557" y="664"/>
      <point x="535" y="664" type="curve" smooth="yes"/>
      <point x="513" y="664"/>
      <point x="493" y="653"/>
    </contour>
    <contour>
      <point x="95" y="529" type="curve" smooth="yes"/>
      <point x="56" y="532"/>
      <point x="31" y="519"/>
      <point x="30" y="489" type="curve" smooth="yes"/>
      <point x="27" y="464"/>
      <point x="47" y="446"/>
      <point x="90" y="442" type="curve" smooth="yes"/>
      <point x="262" y="428"/>
      <point x="453" y="413"/>
      <point x="631" y="402" type="curve" smooth="yes"/>
      <point x="670" y="399"/>
      <point x="697" y="413"/>
      <point x="698" y="439" type="curve" smooth="yes"/>
      <point x="698" y="467"/>
      <point x="682" y="481"/>
      <point x="640" y="485" type="curve" smooth="yes"/>
      <point x="464" y="503"/>
      <point x="267" y="519"/>
    </contour>
    <contour>
      <point x="120" y="233" type="curve" smooth="yes"/>
      <point x="79" y="229"/>
      <point x="58" y="214"/>
      <point x="58" y="192" type="curve" smooth="yes"/>
      <point x="59" y="164"/>
      <point x="76" y="146"/>
      <point x="121" y="148" type="curve" smooth="yes"/>
      <point x="298" y="157"/>
      <point x="484" y="170"/>
      <point x="662" y="184" type="curve" smooth="yes"/>
      <point x="704" y="188"/>
      <point x="719" y="210"/>
      <point x="716" y="239" type="curve" smooth="yes"/>
      <point x="713" y="266"/>
      <point x="691" y="278"/>
      <point x="656" y="276" type="curve" smooth="yes"/>
      <point x="483" y="265"/>
      <point x="295" y="249"/>
    </contour>
  </outline>
</glyph>
<glyph name="dollar" format="2">
  <advance width="468"/>
  <unicode hex="0024"/>
  <outline>
    <contour>
      <point x="221" y="41" type="curve" smooth="yes"/>
      <point x="347" y="41"/>
      <point x="440" y="99"/>
      <point x="440" y="232" type="curve" smooth="yes"/>
      <point x="440" y="335"/>
      <point x="385" y="372"/>
      <point x="220" y="442" type="curve" smooth="yes"/>
      <point x="166" y="465"/>
      <point x="146" y="493"/>
      <point x="146" y="532" type="curve" smooth="yes"/>
      <point x="146" y="569"/>
      <point x="171" y="601"/>
      <point x="238" y="601" type="curve" smooth="yes"/>
      <point x="328" y="601"/>
      <point x="362" y="556"/>
      <point x="393" y="556" type="curve" smooth="yes"/>
      <point x="413" y="556"/>
      <point x="422" y="571"/>
      <point x="422" y="591" type="curve" smooth="yes"/>
      <point x="422" y="630"/>
      <point x="335" y="675"/>
      <point x="241" y="675" type="curve" smooth="yes"/>
      <point x="136" y="675"/>
      <point x="60" y="609"/>
      <point x="60" y="520" type="curve" smooth="yes"/>
      <point x="60" y="448"/>
      <point x="97" y="397"/>
      <point x="159" y="361" type="curve" smooth="yes"/>
      <point x="245" y="310"/>
      <point x="277" y="262"/>
      <point x="277" y="194" type="curve" smooth="yes"/>
      <point x="277" y="139"/>
      <point x="250" y="111"/>
      <point x="207" y="111" type="curve" smooth="yes"/>
      <point x="110" y="111"/>
      <point x="78" y="210"/>
      <point x="51" y="210" type="curve" smooth="yes"/>
      <point x="34" y="210"/>
      <point x="22" y="201"/>
      <point x="22" y="181" type="curve" smooth="yes"/>
      <point x="22" y="127"/>
      <point x="106" y="41"/>
    </contour>
    <contour>
      <point x="321" y="274" type="curve" smooth="yes"/>
      <point x="301" y="274"/>
      <point x="285" y="290"/>
      <point x="285" y="310" type="curve" smooth="yes"/>
      <point x="285" y="329"/>
      <point x="301" y="346"/>
      <point x="321" y="346" type="curve" smooth="yes"/>
      <point x="340" y="346"/>
      <point x="357" y="329"/>
      <point x="357" y="310" type="curve" smooth="yes"/>
      <point x="357" y="290"/>
      <point x="340" y="274"/>
    </contour>
    <contour>
      <point x="356" y="176" type="curve" smooth="yes"/>
      <point x="335" y="176"/>
      <point x="319" y="192"/>
      <point x="319" y="213" type="curve" smooth="yes"/>
      <point x="319" y="233"/>
      <point x="335" y="251"/>
      <point x="356" y="251" type="curve" smooth="yes"/>
      <point x="376" y="251"/>
      <point x="394" y="233"/>
      <point x="394" y="213" type="curve" smooth="yes"/>
      <point x="394" y="192"/>
      <point x="376" y="176"/>
    </contour>
    <contour>
      <point x="277" y="84" type="line"/>
      <point x="285" y="70"/>
      <point x="293" y="63"/>
      <point x="317" y="73" type="curve" smooth="yes"/>
      <point x="341" y="83"/>
      <point x="339" y="93"/>
      <point x="330" y="108" type="curve"/>
    </contour>
    <contour>
      <point x="93" y="132" type="line"/>
      <point x="84" y="123"/>
      <point x="77" y="114"/>
      <point x="97" y="99" type="curve" smooth="yes"/>
      <point x="113" y="87"/>
      <point x="130" y="91"/>
      <point x="139" y="103" type="curve"/>
    </contour>
    <contour>
      <point x="148" y="165" type="curve" smooth="yes"/>
      <point x="130" y="106"/>
      <point x="113" y="44"/>
      <point x="97" y="-23" type="curve" smooth="yes"/>
      <point x="88" y="-61"/>
      <point x="98" y="-74"/>
      <point x="116" y="-77" type="curve" smooth="yes"/>
      <point x="133" y="-81"/>
      <point x="143" y="-72"/>
      <point x="155" y="-33" type="curve" smooth="yes"/>
      <point x="175" y="30"/>
      <point x="192" y="90"/>
      <point x="206" y="143" type="curve" smooth="yes"/>
      <point x="216" y="180"/>
      <point x="210" y="197"/>
      <point x="192" y="202" type="curve" smooth="yes"/>
      <point x="175" y="207"/>
      <point x="159" y="200"/>
    </contour>
    <contour>
      <point x="294" y="534" type="curve" smooth="yes"/>
      <point x="309" y="585"/>
      <point x="328" y="658"/>
      <point x="338" y="706" type="curve" smooth="yes"/>
      <point x="346" y="745"/>
      <point x="339" y="758"/>
      <point x="323" y="763" type="curve" smooth="yes"/>
      <point x="303" y="768"/>
      <point x="287" y="759"/>
      <point x="277" y="721" type="curve" smooth="yes"/>
      <point x="264" y="671"/>
      <point x="249" y="604"/>
      <point x="239" y="550" type="curve" smooth="yes"/>
      <point x="232" y="514"/>
      <point x="239" y="501"/>
      <point x="256" y="496" type="curve" smooth="yes"/>
      <point x="271" y="492"/>
      <point x="283" y="496"/>
    </contour>
  </outline>
</glyph>
<glyph name="percent" format="2">
  <advance width="664"/>
  <unicode hex="0025"/>
  <outline>
    <contour>
      <point x="191" y="380" type="curve" smooth="yes"/>
      <point x="269" y="380"/>
      <point x="331" y="430"/>
      <point x="330" y="530" type="curve" smooth="yes"/>
      <point x="329" y="614"/>
      <point x="275" y="671"/>
      <point x="190" y="671" type="curve" smooth="yes"/>
      <point x="121" y="671"/>
      <point x="49" y="626"/>
      <point x="49" y="524" type="curve" smooth="yes"/>
      <point x="49" y="438"/>
      <point x="98" y="380"/>
    </contour>
    <contour>
      <point x="181" y="457" type="curve" smooth="yes"/>
      <point x="139" y="457"/>
      <point x="117" y="488"/>
      <point x="117" y="528" type="curve" smooth="yes"/>
      <point x="117" y="582"/>
      <point x="154" y="599"/>
      <point x="181" y="599" type="curve" smooth="yes"/>
      <point x="220" y="599"/>
      <point x="250" y="567"/>
      <point x="250" y="530" type="curve" smooth="yes"/>
      <point x="250" y="487"/>
      <point x="221" y="457"/>
    </contour>
    <contour>
      <point x="467" y="-10" type="curve" smooth="yes"/>
      <point x="559" y="-10"/>
      <point x="610" y="36"/>
      <point x="610" y="134" type="curve" smooth="yes"/>
      <point x="610" y="222"/>
      <point x="560" y="270"/>
      <point x="476" y="270" type="curve" smooth="yes"/>
      <point x="402" y="270"/>
      <point x="338" y="219"/>
      <point x="338" y="128" type="curve" smooth="yes"/>
      <point x="338" y="46"/>
      <point x="390" y="-10"/>
    </contour>
    <contour>
      <point x="476" y="64" type="curve" smooth="yes"/>
      <point x="439" y="64"/>
      <point x="420" y="93"/>
      <point x="420" y="129" type="curve" smooth="yes"/>
      <point x="420" y="169"/>
      <point x="447" y="194"/>
      <point x="481" y="194" type="curve" smooth="yes"/>
      <point x="521" y="194"/>
      <point x="539" y="173"/>
      <point x="539" y="131" type="curve" smooth="yes"/>
      <point x="539" y="86"/>
      <point x="520" y="64"/>
    </contour>
    <contour>
      <point x="500" y="37" type="line"/>
      <point x="509" y="18"/>
      <point x="518" y="15"/>
      <point x="543" y="26" type="curve" smooth="yes"/>
      <point x="567" y="37"/>
      <point x="570" y="42"/>
      <point x="562" y="65" type="curve"/>
    </contour>
    <contour>
      <point x="407" y="40" type="line"/>
      <point x="372" y="-94"/>
      <point x="383" y="-119"/>
      <point x="410" y="-124" type="curve" smooth="yes"/>
      <point x="440" y="-129"/>
      <point x="460" y="-115"/>
      <point x="480" y="25" type="curve"/>
    </contour>
    <contour>
      <point x="137" y="644" type="line"/>
      <point x="66" y="724"/>
      <point x="43" y="731"/>
      <point x="21" y="712" type="curve" smooth="yes"/>
      <point x="0" y="693"/>
      <point x="1" y="665"/>
      <point x="80" y="588" type="curve"/>
    </contour>
    <contour>
      <point x="308" y="553" type="line"/>
      <point x="445" y="613"/>
      <point x="459" y="634"/>
      <point x="445" y="663" type="curve" smooth="yes"/>
      <point x="430" y="693"/>
      <point x="404" y="695"/>
      <point x="269" y="627" type="curve"/>
    </contour>
    <contour>
      <point x="92" y="460" type="line"/>
      <point x="31" y="366"/>
      <point x="24" y="337"/>
      <point x="50" y="320" type="curve" smooth="yes"/>
      <point x="75" y="304"/>
      <point x="95" y="310"/>
      <point x="164" y="410" type="curve"/>
    </contour>
    <contour>
      <point x="559" y="577" type="curve" smooth="yes"/>
      <point x="373" y="414"/>
      <point x="230" y="289"/>
      <point x="46" y="123" type="curve" smooth="yes"/>
      <point x="18" y="98"/>
      <point x="17" y="71"/>
      <point x="33" y="56" type="curve" smooth="yes"/>
      <point x="49" y="41"/>
      <point x="72" y="43"/>
      <point x="97" y="65" type="curve" smooth="yes"/>
      <point x="273" y="222"/>
      <point x="425" y="358"/>
      <point x="611" y="525" type="curve" smooth="yes"/>
      <point x="639" y="550"/>
      <point x="640" y="575"/>
      <point x="625" y="590" type="curve" smooth="yes"/>
      <point x="609" y="606"/>
      <point x="587" y="602"/>
    </contour>
    <contour>
      <point x="581" y="185" type="line"/>
      <point x="684" y="270"/>
      <point x="690" y="300"/>
      <point x="672" y="322" type="curve" smooth="yes"/>
      <point x="653" y="344"/>
      <point x="627" y="345"/>
      <point x="525" y="249" type="curve"/>
    </contour>
  </outline>
</glyph>
<glyph name="parenleft" format="2">
  <advance width="367"/>
  <unicode hex="0028"/>
  <outline>
    <contour>
      <point x="77" y="365" type="curve" smooth="yes"/>
      <point x="77" y="136"/>
      <point x="151" y="-1"/>
      <point x="227" y="-79" type="curve" smooth="yes"/>
      <point x="276" y="-130"/>
      <point x="353" y="-67"/>
      <point x="308" y="-16" type="curve" smooth="yes"/>
      <point x="229" y="74"/>
      <point x="172" y="194"/>
      <point x="172" y="367" type="curve" smooth="yes"/>
      <point x="172" y="531"/>
      <point x="235" y="647"/>
      <point x="346" y="766" type="curve" smooth="yes"/>
      <point x="396" y="819"/>
      <point x="338" y="881"/>
      <point x="278" y="820" type="curve" smooth="yes"/>
      <point x="164" y="704"/>
      <point x="77" y="537"/>
    </contour>
    <contour>
      <point x="85" y="556" type="curve" smooth="yes"/>
      <point x="31" y="565"/>
      <point x="7" y="559"/>
      <point x="3" y="532" type="curve" smooth="yes"/>
      <point x="-2" y="503"/>
      <point x="16" y="488"/>
      <point x="68" y="475" type="curve" smooth="yes"/>
      <point x="99" y="467"/>
      <point x="147" y="458"/>
      <point x="193" y="452" type="curve" smooth="yes"/>
      <point x="277" y="440"/>
      <point x="307" y="436"/>
      <point x="312" y="470" type="curve" smooth="yes"/>
      <point x="317" y="501"/>
      <point x="297" y="508"/>
      <point x="206" y="531" type="curve" smooth="yes"/>
      <point x="167" y="541"/>
      <point x="118" y="550"/>
    </contour>
    <contour>
      <point x="140" y="178" type="curve" smooth="yes"/>
      <point x="129" y="174"/>
      <point x="127" y="154"/>
      <point x="133" y="137" type="curve" smooth="yes"/>
      <point x="140" y="117"/>
      <point x="147" y="110"/>
      <point x="165" y="115" type="curve" smooth="yes"/>
      <point x="170" y="116"/>
      <point x="174" y="118"/>
      <point x="177" y="119" type="curve" smooth="yes"/>
      <point x="187" y="122"/>
      <point x="192" y="139"/>
      <point x="186" y="159" type="curve" smooth="yes"/>
      <point x="182" y="175"/>
      <point x="177" y="187"/>
      <point x="163" y="185" type="curve" smooth="yes"/>
      <point x="152" y="183"/>
      <point x="146" y="180"/>
    </contour>
    <contour>
      <point x="185" y="710" type="curve" smooth="yes"/>
      <point x="112" y="740"/>
      <point x="84" y="744"/>
      <point x="70" y="719" type="curve" smooth="yes"/>
      <point x="55" y="695"/>
      <point x="73" y="673"/>
      <point x="132" y="641" type="curve" smooth="yes"/>
      <point x="154" y="629"/>
      <point x="191" y="611"/>
      <point x="224" y="597" type="curve" smooth="yes"/>
      <point x="288" y="570"/>
      <point x="310" y="567"/>
      <point x="323" y="595" type="curve" smooth="yes"/>
      <point x="335" y="621"/>
      <point x="317" y="642"/>
      <point x="272" y="668" type="curve" smooth="yes"/>
      <point x="243" y="684"/>
      <point x="212" y="699"/>
    </contour>
  </outline>
</glyph>
<glyph name="parenright" format="2">
  <advance width="367"/>
  <unicode hex="0029"/>
  <outline>
    <contour>
      <point x="304" y="334" type="curve" smooth="yes"/>
      <point x="301" y="520"/>
      <point x="264" y="686"/>
      <point x="167" y="811" type="curve" smooth="yes"/>
      <point x="108" y="887"/>
      <point x="18" y="809"/>
      <point x="70" y="742" type="curve" smooth="yes"/>
      <point x="164" y="619"/>
      <point x="208" y="487"/>
      <point x="211" y="313" type="curve" smooth="yes"/>
      <point x="213" y="171"/>
      <point x="148" y="54"/>
      <point x="23" y="-53" type="curve" smooth="yes"/>
      <point x="-32" y="-100"/>
      <point x="30" y="-171"/>
      <point x="87" y="-121" type="curve" smooth="yes"/>
      <point x="222" y="0"/>
      <point x="307" y="152"/>
    </contour>
    <contour>
      <point x="174" y="653" type="curve" smooth="yes"/>
      <point x="169" y="648"/>
      <point x="171" y="626"/>
      <point x="178" y="611" type="curve" smooth="yes"/>
      <point x="192" y="586"/>
      <point x="195" y="584"/>
      <point x="209" y="590" type="curve" smooth="yes"/>
      <point x="214" y="592"/>
      <point x="224" y="596"/>
      <point x="229" y="599" type="curve" smooth="yes"/>
      <point x="239" y="605"/>
      <point x="238" y="620"/>
      <point x="224" y="644" type="curve" smooth="yes"/>
      <point x="210" y="667"/>
      <point x="197" y="667"/>
      <point x="190" y="663" type="curve" smooth="yes"/>
      <point x="186" y="661"/>
      <point x="179" y="656"/>
    </contour>
    <contour>
      <point x="162" y="81" type="curve" smooth="yes"/>
      <point x="76" y="129"/>
      <point x="50" y="125"/>
      <point x="34" y="100" type="curve" smooth="yes"/>
      <point x="19" y="75"/>
      <point x="32" y="53"/>
      <point x="108" y="0" type="curve" smooth="yes"/>
      <point x="129" y="-14"/>
      <point x="167" y="-38"/>
      <point x="201" y="-56" type="curve" smooth="yes"/>
      <point x="260" y="-85"/>
      <point x="280" y="-79"/>
      <point x="294" y="-58" type="curve" smooth="yes"/>
      <point x="306" y="-33"/>
      <point x="305" y="-13"/>
      <point x="256" y="23" type="curve" smooth="yes"/>
      <point x="226" y="43"/>
      <point x="181" y="70"/>
    </contour>
    <contour>
      <point x="219" y="290" type="curve" smooth="yes"/>
      <point x="124" y="306"/>
      <point x="99" y="302"/>
      <point x="92" y="270" type="curve" smooth="yes"/>
      <point x="85" y="238"/>
      <point x="102" y="222"/>
      <point x="193" y="198" type="curve" smooth="yes"/>
      <point x="213" y="193"/>
      <point x="243" y="186"/>
      <point x="283" y="179" type="curve" smooth="yes"/>
      <point x="347" y="168"/>
      <point x="371" y="170"/>
      <point x="378" y="204" type="curve" smooth="yes"/>
      <point x="384" y="234"/>
      <point x="370" y="254"/>
      <point x="296" y="273" type="curve" smooth="yes"/>
      <point x="266" y="281"/>
      <point x="240" y="286"/>
    </contour>
  </outline>
</glyph>
<glyph name="asterisk" format="2">
  <advance width="539"/>
  <unicode hex="002A"/>
  <outline>
    <contour>
      <point x="119" y="555" type="curve" smooth="yes"/>
      <point x="144" y="542"/>
      <point x="184" y="530"/>
      <point x="208" y="517" type="curve" smooth="yes"/>
      <point x="225" y="508"/>
      <point x="225" y="496"/>
      <point x="214" y="492" type="curve" smooth="yes"/>
      <point x="164" y="472"/>
      <point x="117" y="462"/>
      <point x="64" y="441" type="curve" smooth="yes"/>
      <point x="25" y="425"/>
      <point x="14" y="387"/>
      <point x="29" y="361" type="curve" smooth="yes"/>
      <point x="45" y="329"/>
      <point x="77" y="322"/>
      <point x="113" y="347" type="curve" smooth="yes"/>
      <point x="156" y="377"/>
      <point x="197" y="419"/>
      <point x="244" y="454" type="curve" smooth="yes"/>
      <point x="255" y="462"/>
      <point x="265" y="457"/>
      <point x="265" y="442" type="curve" smooth="yes"/>
      <point x="265" y="390"/>
      <point x="256" y="346"/>
      <point x="255" y="303" type="curve" smooth="yes"/>
      <point x="254" y="256"/>
      <point x="282" y="231"/>
      <point x="323" y="238" type="curve" smooth="yes"/>
      <point x="370" y="246"/>
      <point x="388" y="280"/>
      <point x="371" y="322" type="curve" smooth="yes"/>
      <point x="354" y="361"/>
      <point x="331" y="399"/>
      <point x="316" y="444" type="curve" smooth="yes"/>
      <point x="311" y="458"/>
      <point x="316" y="467"/>
      <point x="331" y="462" type="curve" smooth="yes"/>
      <point x="371" y="448"/>
      <point x="404" y="425"/>
      <point x="443" y="413" type="curve" smooth="yes"/>
      <point x="475" y="403"/>
      <point x="503" y="417"/>
      <point x="511" y="458" type="curve" smooth="yes"/>
      <point x="517" y="494"/>
      <point x="501" y="516"/>
      <point x="464" y="519" type="curve" smooth="yes"/>
      <point x="426" y="521"/>
      <point x="391" y="517"/>
      <point x="356" y="519" type="curve" smooth="yes"/>
      <point x="336" y="520"/>
      <point x="332" y="530"/>
      <point x="341" y="548" type="curve" smooth="yes"/>
      <point x="365" y="593"/>
      <point x="404" y="642"/>
      <point x="432" y="692" type="curve" smooth="yes"/>
      <point x="451" y="727"/>
      <point x="441" y="763"/>
      <point x="401" y="776" type="curve" smooth="yes"/>
      <point x="361" y="790"/>
      <point x="334" y="774"/>
      <point x="321" y="732" type="curve" smooth="yes"/>
      <point x="306" y="683"/>
      <point x="295" y="626"/>
      <point x="280" y="578" type="curve" smooth="yes"/>
      <point x="275" y="561"/>
      <point x="260" y="556"/>
      <point x="248" y="570" type="curve" smooth="yes"/>
      <point x="233" y="588"/>
      <point x="214" y="625"/>
      <point x="196" y="648" type="curve" smooth="yes"/>
      <point x="179" y="670"/>
      <point x="135" y="673"/>
      <point x="108" y="643" type="curve" smooth="yes"/>
      <point x="82" y="614"/>
      <point x="88" y="571"/>
    </contour>
  </outline>
</glyph>
<glyph name="hyphen" format="2">
  <advance width="333"/>
  <unicode hex="002D"/>
  <outline>
    <contour>
      <point x="96" y="369" type="curve" smooth="yes"/>
      <point x="52" y="367"/>
      <point x="30" y="354"/>
      <point x="30" y="321" type="curve" smooth="yes"/>
      <point x="30" y="289"/>
      <point x="50" y="277"/>
      <point x="100" y="273" type="curve" smooth="yes"/>
      <point x="137" y="270"/>
      <point x="202" y="269"/>
      <point x="238" y="271" type="curve" smooth="yes"/>
      <point x="283" y="273"/>
      <point x="301" y="290"/>
      <point x="301" y="319" type="curve" smooth="yes"/>
      <point x="301" y="346"/>
      <point x="288" y="364"/>
      <point x="257" y="366" type="curve" smooth="yes"/>
      <point x="211" y="369"/>
      <point x="146" y="370"/>
    </contour>
  </outline>
</glyph>
<glyph name="slash" format="2">
  <advance width="402"/>
  <unicode hex="002F"/>
  <outline>
    <contour>
      <point x="37" y="-118" type="curve" smooth="yes"/>
      <point x="69" y="-130"/>
      <point x="100" y="-122"/>
      <point x="115" y="-78" type="curve" smooth="yes"/>
      <point x="210" y="192"/>
      <point x="306" y="482"/>
      <point x="392" y="753" type="curve" smooth="yes"/>
      <point x="406" y="796"/>
      <point x="405" y="816"/>
      <point x="373" y="826" type="curve" smooth="yes"/>
      <point x="349" y="834"/>
      <point x="327" y="825"/>
      <point x="311" y="781" type="curve" smooth="yes"/>
      <point x="214" y="522"/>
      <point x="111" y="233"/>
      <point x="16" y="-33" type="curve" smooth="yes"/>
      <point x="-1" y="-81"/>
      <point x="6" y="-107"/>
    </contour>
  </outline>
</glyph>
<glyph name="zero" format="2">
  <advance width="636"/>
  <unicode hex="0030"/>
  <guideline x="345" y="313" angle="32.5681"/>
  <guideline x="310" y="376" angle="211.3191"/>
  <outline>
    <contour>
      <point x="311" y="-14" type="curve" smooth="yes"/>
      <point x="467" y="-14"/>
      <point x="596" y="117"/>
      <point x="596" y="352" type="curve" smooth="yes"/>
      <point x="596" y="596"/>
      <point x="493" y="714"/>
      <point x="330" y="714" type="curve" smooth="yes"/>
      <point x="157" y="714"/>
      <point x="40" y="575"/>
      <point x="40" y="305" type="curve" smooth="yes"/>
      <point x="40" y="110"/>
      <point x="137" y="-14"/>
    </contour>
    <contour>
      <point x="328" y="520" type="curve" smooth="yes"/>
      <point x="430" y="520"/>
      <point x="506" y="455"/>
      <point x="506" y="320" type="curve" smooth="yes"/>
      <point x="506" y="156"/>
      <point x="431" y="55"/>
      <point x="317" y="55" type="curve" smooth="yes"/>
      <point x="196" y="55"/>
      <point x="130" y="151"/>
      <point x="130" y="298" type="curve" smooth="yes"/>
      <point x="130" y="449"/>
      <point x="210" y="520"/>
    </contour>
    <contour>
      <point x="324" y="289" type="curve" smooth="yes"/>
      <point x="359" y="289"/>
      <point x="382" y="313"/>
      <point x="382" y="348" type="curve" smooth="yes"/>
      <point x="382" y="382"/>
      <point x="360" y="416"/>
      <point x="324" y="416" type="curve" smooth="yes"/>
      <point x="286" y="416"/>
      <point x="260" y="392"/>
      <point x="260" y="358" type="curve" smooth="yes"/>
      <point x="260" y="318"/>
      <point x="290" y="289"/>
    </contour>
    <contour>
      <point x="478" y="166" type="curve"/>
      <point x="478" y="166"/>
      <point x="473" y="158"/>
      <point x="460" y="137" type="curve" smooth="yes"/>
      <point x="449" y="119"/>
      <point x="431" y="99"/>
      <point x="431" y="99" type="curve"/>
      <point x="448" y="118"/>
      <point x="469" y="146"/>
    </contour>
    <contour>
      <point x="506" y="296" type="curve"/>
      <point x="506" y="290"/>
      <point x="505" y="281"/>
      <point x="503" y="264" type="curve" smooth="yes"/>
      <point x="500" y="243"/>
      <point x="499" y="236"/>
      <point x="499" y="236" type="curve"/>
      <point x="503" y="259"/>
      <point x="504" y="270"/>
    </contour>
    <contour>
      <point x="446" y="234" type="line" smooth="yes"/>
      <point x="409" y="285"/>
      <point x="347" y="238"/>
      <point x="380" y="196" type="curve" smooth="yes"/>
      <point x="534" y="0" type="line" smooth="yes"/>
      <point x="560" y="-33"/>
      <point x="613" y="3"/>
      <point x="582" y="46" type="curve" smooth="yes"/>
    </contour>
    <contour>
      <point x="92" y="171" type="line" smooth="yes"/>
      <point x="48" y="132"/>
      <point x="108" y="83"/>
      <point x="138" y="112" type="curve" smooth="yes"/>
      <point x="237" y="210" type="line" smooth="yes"/>
      <point x="274" y="247"/>
      <point x="226" y="288"/>
      <point x="191" y="257" type="curve" smooth="yes"/>
    </contour>
    <contour>
      <point x="97" y="484" type="line" smooth="yes"/>
      <point x="66" y="494"/>
      <point x="49" y="430"/>
      <point x="76" y="425" type="curve" smooth="yes"/>
      <point x="91" y="422" type="line" smooth="yes"/>
      <point x="126" y="415"/>
      <point x="135" y="472"/>
      <point x="110" y="480" type="curve" smooth="yes"/>
    </contour>
    <contour>
      <point x="263" y="63" type="curve"/>
      <point x="277" y="56"/>
      <point x="309" y="50"/>
      <point x="336" y="57" type="curve"/>
      <point x="321" y="54"/>
      <point x="315" y="53"/>
      <point x="299" y="55" type="curve" smooth="yes"/>
      <point x="280" y="57"/>
      <point x="273" y="58"/>
    </contour>
    <contour>
      <point x="173" y="131" type="curve"/>
      <point x="180" y="116"/>
      <point x="198" y="96"/>
      <point x="217" y="82" type="curve"/>
      <point x="211" y="85"/>
      <point x="206" y="88"/>
      <point x="192" y="103" type="curve" smooth="yes"/>
      <point x="177" y="120"/>
      <point x="173" y="131"/>
    </contour>
    <contour>
      <point x="130" y="304" type="curve"/>
      <point x="129" y="285"/>
      <point x="131" y="254"/>
      <point x="135" y="235" type="curve"/>
      <point x="135" y="235"/>
      <point x="132" y="246"/>
      <point x="131" y="265" type="curve" smooth="yes"/>
      <point x="130" y="276"/>
      <point x="130" y="297"/>
    </contour>
    <contour>
      <point x="144" y="395" type="curve"/>
      <point x="139" y="380"/>
      <point x="133" y="353"/>
      <point x="132" y="339" type="curve"/>
      <point x="132" y="346"/>
      <point x="134" y="355"/>
      <point x="136" y="366" type="curve" smooth="yes"/>
      <point x="139" y="383"/>
      <point x="141" y="387"/>
    </contour>
    <contour>
      <point x="430" y="493" type="curve"/>
      <point x="409" y="504"/>
      <point x="387" y="513"/>
      <point x="365" y="517" type="curve"/>
      <point x="384" y="618"/>
      <point x="403" y="641"/>
      <point x="435" y="632" type="curve" smooth="yes"/>
      <point x="462" y="624"/>
      <point x="467" y="593"/>
    </contour>
    <contour>
      <point x="293" y="518" type="curve"/>
      <point x="271" y="514"/>
      <point x="250" y="509"/>
      <point x="228" y="498" type="curve"/>
      <point x="199" y="587"/>
      <point x="208" y="625"/>
      <point x="237" y="631" type="curve" smooth="yes"/>
      <point x="269" y="638"/>
      <point x="288" y="598"/>
    </contour>
  </outline>
</glyph>
<glyph name="one" format="2">
  <advance width="473"/>
  <unicode hex="0031"/>
  <outline>
    <contour>
      <point x="349" y="609" type="line" smooth="yes"/>
      <point x="359" y="686"/>
      <point x="336" y="719"/>
      <point x="281" y="719" type="curve" smooth="yes"/>
      <point x="246" y="719"/>
      <point x="224" y="711"/>
      <point x="81" y="671" type="curve" smooth="yes"/>
      <point x="24" y="655"/>
      <point x="28" y="600"/>
      <point x="83" y="588" type="curve" smooth="yes"/>
      <point x="114" y="581" type="line" smooth="yes"/>
      <point x="145" y="574"/>
      <point x="152" y="558"/>
      <point x="158" y="511" type="curve" smooth="yes"/>
      <point x="204" y="169" type="line" smooth="yes"/>
      <point x="208" y="139"/>
      <point x="197" y="123"/>
      <point x="167" y="113" type="curve" smooth="yes"/>
      <point x="60" y="77" type="line" smooth="yes"/>
      <point x="0" y="57"/>
      <point x="1" y="3"/>
      <point x="63" y="2" type="curve" smooth="yes"/>
      <point x="413" y="-4" type="line" smooth="yes"/>
      <point x="472" y="-5"/>
      <point x="478" y="44"/>
      <point x="417" y="70" type="curve" smooth="yes"/>
      <point x="317" y="112" type="line" smooth="yes"/>
      <point x="296" y="121"/>
      <point x="287" y="128"/>
      <point x="289" y="147" type="curve" smooth="yes"/>
    </contour>
    <contour>
      <point x="278" y="444" type="curve" smooth="yes"/>
      <point x="278" y="444"/>
      <point x="278" y="444"/>
      <point x="278" y="444" type="curve" smooth="yes"/>
      <point x="278" y="444"/>
      <point x="278" y="444"/>
      <point x="278" y="444" type="curve" smooth="yes"/>
      <point x="278" y="444"/>
      <point x="278" y="444"/>
      <point x="278" y="444" type="curve" smooth="yes"/>
      <point x="278" y="444"/>
      <point x="278" y="444"/>
    </contour>
    <contour>
      <point x="313" y="337" type="curve"/>
      <point x="304" y="266" type="line"/>
      <point x="304" y="266"/>
      <point x="306" y="284"/>
      <point x="309" y="304" type="curve" smooth="yes"/>
      <point x="311" y="321"/>
      <point x="313" y="337"/>
    </contour>
    <contour>
      <point x="299" y="233" type="curve"/>
      <point x="289" y="152" type="line"/>
      <point x="289" y="152"/>
      <point x="292" y="168"/>
      <point x="295" y="192" type="curve" smooth="yes"/>
      <point x="298" y="219"/>
      <point x="299" y="233"/>
    </contour>
    <contour>
      <point x="160" y="0" type="line"/>
      <point x="160" y="0"/>
      <point x="176" y="0"/>
      <point x="188" y="0" type="curve" smooth="yes"/>
      <point x="202" y="0"/>
      <point x="213" y="1"/>
      <point x="213" y="1" type="curve"/>
    </contour>
    <contour>
      <point x="273" y="0" type="line"/>
      <point x="273" y="0"/>
      <point x="289" y="0"/>
      <point x="301" y="0" type="curve" smooth="yes"/>
      <point x="315" y="0"/>
      <point x="326" y="-1"/>
      <point x="326" y="-1" type="curve"/>
    </contour>
    <contour>
      <point x="182" y="328" type="curve"/>
      <point x="173" y="393" type="line"/>
      <point x="247" y="397"/>
      <point x="264" y="391"/>
      <point x="266" y="373" type="curve" smooth="yes"/>
      <point x="268" y="352"/>
      <point x="256" y="342"/>
    </contour>
    <contour>
      <point x="167" y="446" type="curve"/>
      <point x="159" y="507" type="line"/>
      <point x="252" y="519"/>
      <point x="275" y="516"/>
      <point x="278" y="495" type="curve" smooth="yes"/>
      <point x="282" y="469"/>
      <point x="265" y="453"/>
    </contour>
    <contour>
      <point x="249" y="324" type="line"/>
      <point x="228" y="320" type="line" smooth="yes"/>
      <point x="186" y="312"/>
      <point x="189" y="252"/>
      <point x="233" y="254" type="curve" smooth="yes"/>
      <point x="251" y="255" type="line"/>
    </contour>
    <contour>
      <point x="252" y="577" type="curve" smooth="yes"/>
      <point x="227" y="577"/>
      <point x="210" y="595"/>
      <point x="210" y="620" type="curve" smooth="yes"/>
      <point x="210" y="643"/>
      <point x="227" y="661"/>
      <point x="252" y="661" type="curve" smooth="yes"/>
      <point x="276" y="661"/>
      <point x="294" y="643"/>
      <point x="294" y="620" type="curve" smooth="yes"/>
      <point x="294" y="595"/>
      <point x="276" y="577"/>
    </contour>
    <contour>
      <point x="296" y="411" type="line"/>
      <point x="300" y="411" type="line" smooth="yes"/>
      <point x="329" y="411"/>
      <point x="337" y="480"/>
      <point x="304" y="480" type="curve" smooth="yes"/>
      <point x="301" y="480" type="line"/>
    </contour>
    <contour>
      <point x="97" y="143" type="curve" smooth="yes"/>
      <point x="125" y="143"/>
      <point x="149" y="165"/>
      <point x="149" y="195" type="curve" smooth="yes"/>
      <point x="149" y="225"/>
      <point x="125" y="247"/>
      <point x="97" y="247" type="curve" smooth="yes"/>
      <point x="67" y="247"/>
      <point x="45" y="225"/>
      <point x="45" y="195" type="curve" smooth="yes"/>
      <point x="45" y="165"/>
      <point x="67" y="143"/>
    </contour>
  </outline>
</glyph>
<glyph name="two" format="2">
  <advance width="512"/>
  <unicode hex="0032"/>
  <outline>
    <contour>
      <point x="394" y="457" type="curve" smooth="yes"/>
      <point x="394" y="392"/>
      <point x="375" y="350"/>
      <point x="346" y="321" type="curve" smooth="yes"/>
      <point x="270" y="245"/>
      <point x="125" y="253"/>
      <point x="59" y="187" type="curve" smooth="yes"/>
      <point x="36" y="164"/>
      <point x="25" y="134"/>
      <point x="25" y="104" type="curve" smooth="yes"/>
      <point x="25" y="29"/>
      <point x="71" y="-15"/>
      <point x="159" y="-9" type="curve" smooth="yes"/>
      <point x="444" y="12" type="line" smooth="yes"/>
      <point x="511" y="17"/>
      <point x="503" y="96"/>
      <point x="438" y="91" type="curve" smooth="yes"/>
      <point x="170" y="69" type="line" smooth="yes"/>
      <point x="113" y="64"/>
      <point x="100" y="117"/>
      <point x="130" y="147" type="curve" smooth="yes"/>
      <point x="178" y="195"/>
      <point x="324" y="190"/>
      <point x="411" y="278" type="curve" smooth="yes"/>
      <point x="451" y="318"/>
      <point x="478" y="378"/>
      <point x="478" y="471" type="curve" smooth="yes"/>
      <point x="478" y="614"/>
      <point x="393" y="711"/>
      <point x="257" y="711" type="curve" smooth="yes"/>
      <point x="109" y="711"/>
      <point x="21" y="621"/>
      <point x="21" y="495" type="curve" smooth="yes"/>
      <point x="21" y="376"/>
      <point x="85" y="317"/>
      <point x="197" y="317" type="curve" smooth="yes"/>
      <point x="290" y="317"/>
      <point x="341" y="373"/>
      <point x="341" y="457" type="curve" smooth="yes"/>
      <point x="341" y="508"/>
      <point x="318" y="542"/>
      <point x="289" y="542" type="curve" smooth="yes"/>
      <point x="266" y="542"/>
      <point x="254" y="526"/>
      <point x="254" y="504" type="curve" smooth="yes"/>
      <point x="254" y="479"/>
      <point x="266" y="470"/>
      <point x="266" y="444" type="curve" smooth="yes"/>
      <point x="266" y="423"/>
      <point x="250" y="412"/>
      <point x="230" y="412" type="curve" smooth="yes"/>
      <point x="204" y="412"/>
      <point x="190" y="429"/>
      <point x="190" y="478" type="curve" smooth="yes"/>
      <point x="190" y="552"/>
      <point x="221" y="601"/>
      <point x="284" y="601" type="curve" smooth="yes"/>
      <point x="366" y="601"/>
      <point x="394" y="520"/>
    </contour>
    <contour>
      <point x="248" y="72" type="line"/>
      <point x="248" y="72"/>
      <point x="236" y="71"/>
      <point x="218" y="71" type="curve" smooth="yes"/>
      <point x="199" y="70"/>
      <point x="186" y="68"/>
      <point x="186" y="68" type="curve"/>
    </contour>
    <contour>
      <point x="341" y="82" type="line"/>
      <point x="341" y="82"/>
      <point x="325" y="80"/>
      <point x="310" y="80" type="curve" smooth="yes"/>
      <point x="292" y="78"/>
      <point x="276" y="77"/>
      <point x="276" y="77" type="curve"/>
    </contour>
    <contour>
      <point x="368" y="665" type="line" smooth="yes"/>
      <point x="368" y="665"/>
      <point x="368" y="665"/>
      <point x="368" y="665" type="curve" smooth="yes"/>
      <point x="368" y="665" type="line"/>
      <point x="368" y="665" type="line"/>
    </contour>
    <contour>
      <point x="255" y="693" type="line" smooth="yes"/>
      <point x="255" y="693"/>
      <point x="255" y="693"/>
      <point x="255" y="693" type="curve" smooth="yes"/>
      <point x="255" y="693" type="line"/>
      <point x="255" y="693" type="line"/>
    </contour>
    <contour>
      <point x="133" y="657" type="line" smooth="yes"/>
      <point x="133" y="657"/>
      <point x="133" y="657"/>
      <point x="133" y="657" type="curve" smooth="yes"/>
      <point x="133" y="657" type="line"/>
      <point x="133" y="657" type="line"/>
    </contour>
    <contour>
      <point x="403" y="-53" type="curve" smooth="yes"/>
      <point x="382" y="128" type="line" smooth="yes"/>
      <point x="377" y="170"/>
      <point x="314" y="166"/>
      <point x="318" y="120" type="curve" smooth="yes"/>
      <point x="332" y="-61" type="line" smooth="yes"/>
      <point x="336" y="-107"/>
      <point x="409" y="-103"/>
    </contour>
    <contour>
      <point x="265" y="-69" type="curve" smooth="yes"/>
      <point x="265" y="19" type="line" smooth="yes"/>
      <point x="265" y="76"/>
      <point x="186" y="72"/>
      <point x="190" y="20" type="curve" smooth="yes"/>
      <point x="197" y="-72" type="line" smooth="yes"/>
      <point x="201" y="-119"/>
      <point x="265" y="-119"/>
    </contour>
    <contour>
      <point x="484" y="53" type="line" smooth="yes"/>
      <point x="484" y="98"/>
      <point x="418" y="97"/>
      <point x="418" y="52" type="curve" smooth="yes"/>
      <point x="418" y="48" type="line" smooth="yes"/>
      <point x="418" y="11"/>
      <point x="484" y="4"/>
      <point x="484" y="49" type="curve" smooth="yes"/>
    </contour>
    <contour>
      <point x="121" y="455" type="curve" smooth="yes"/>
      <point x="142" y="455"/>
      <point x="159" y="438"/>
      <point x="159" y="417" type="curve" smooth="yes"/>
      <point x="159" y="397"/>
      <point x="142" y="380"/>
      <point x="121" y="380" type="curve" smooth="yes"/>
      <point x="101" y="380"/>
      <point x="84" y="397"/>
      <point x="84" y="417" type="curve" smooth="yes"/>
      <point x="84" y="438"/>
      <point x="101" y="455"/>
    </contour>
    <contour>
      <point x="109" y="579" type="curve" smooth="yes"/>
      <point x="132" y="579"/>
      <point x="151" y="560"/>
      <point x="151" y="537" type="curve" smooth="yes"/>
      <point x="151" y="514"/>
      <point x="132" y="495"/>
      <point x="109" y="495" type="curve" smooth="yes"/>
      <point x="86" y="495"/>
      <point x="67" y="514"/>
      <point x="67" y="537" type="curve" smooth="yes"/>
      <point x="67" y="560"/>
      <point x="86" y="579"/>
    </contour>
    <contour>
      <point x="178" y="664" type="curve" smooth="yes"/>
      <point x="198" y="664"/>
      <point x="214" y="648"/>
      <point x="214" y="628" type="curve" smooth="yes"/>
      <point x="214" y="609"/>
      <point x="198" y="593"/>
      <point x="178" y="593" type="curve" smooth="yes"/>
      <point x="159" y="593"/>
      <point x="143" y="609"/>
      <point x="143" y="628" type="curve" smooth="yes"/>
      <point x="143" y="648"/>
      <point x="159" y="664"/>
    </contour>
  </outline>
</glyph>
<glyph name="six" format="2">
  <advance width="514"/>
  <unicode hex="0036"/>
  <outline>
    <contour>
      <point x="289" y="66" type="curve" smooth="yes"/>
      <point x="231" y="66"/>
      <point x="206" y="113"/>
      <point x="206" y="192" type="curve" smooth="yes"/>
      <point x="206" y="268"/>
      <point x="244" y="304"/>
      <point x="301" y="304" type="curve" smooth="yes"/>
      <point x="373" y="304"/>
      <point x="421" y="257"/>
      <point x="421" y="197" type="curve" smooth="yes"/>
      <point x="421" y="130"/>
      <point x="369" y="66"/>
    </contour>
    <contour>
      <point x="262" y="-15" type="curve" smooth="yes"/>
      <point x="402" y="-15"/>
      <point x="496" y="74"/>
      <point x="496" y="206" type="curve" smooth="yes"/>
      <point x="496" y="424"/>
      <point x="236" y="351"/>
      <point x="236" y="426" type="curve" smooth="yes"/>
      <point x="236" y="443"/>
      <point x="245" y="459"/>
      <point x="269" y="495" type="curve" smooth="yes"/>
      <point x="307" y="551"/>
      <point x="284" y="590"/>
      <point x="245" y="590" type="curve" smooth="yes"/>
      <point x="195" y="590"/>
      <point x="144" y="551"/>
      <point x="92" y="470" type="curve" smooth="yes"/>
      <point x="45" y="396"/>
      <point x="17" y="321"/>
      <point x="17" y="222" type="curve" smooth="yes"/>
      <point x="17" y="76"/>
      <point x="114" y="-15"/>
    </contour>
    <contour>
      <point x="203" y="534" type="line" smooth="yes"/>
      <point x="164" y="547"/>
      <point x="141" y="521"/>
      <point x="176" y="503" type="curve" smooth="yes"/>
      <point x="200" y="491" type="line" smooth="yes"/>
      <point x="234" y="474"/>
      <point x="241" y="522"/>
      <point x="231" y="525" type="curve" smooth="yes"/>
    </contour>
    <contour>
      <point x="171" y="490" type="line" smooth="yes"/>
      <point x="151" y="515"/>
      <point x="106" y="472"/>
      <point x="136" y="454" type="curve" smooth="yes"/>
      <point x="158" y="441" type="line" smooth="yes"/>
      <point x="193" y="420"/>
      <point x="201" y="453"/>
      <point x="187" y="470" type="curve" smooth="yes"/>
    </contour>
    <contour>
      <point x="346" y="593" type="curve" smooth="yes"/>
      <point x="382" y="593"/>
      <point x="414" y="626"/>
      <point x="414" y="671" type="curve" smooth="yes"/>
      <point x="414" y="705"/>
      <point x="389" y="730"/>
      <point x="352" y="730" type="curve" smooth="yes"/>
      <point x="314" y="730"/>
      <point x="280" y="698"/>
      <point x="280" y="659" type="curve" smooth="yes"/>
      <point x="280" y="622"/>
      <point x="312" y="593"/>
    </contour>
    <contour>
      <point x="418" y="168" type="curve"/>
      <point x="422" y="190"/>
      <point x="421" y="202"/>
      <point x="419" y="219" type="curve"/>
      <point x="420" y="211"/>
      <point x="421" y="209"/>
      <point x="421" y="197" type="curve"/>
      <point x="421" y="182"/>
      <point x="420" y="179"/>
    </contour>
    <contour>
      <point x="321" y="70" type="curve"/>
      <point x="337" y="73"/>
      <point x="359" y="84"/>
      <point x="374" y="97" type="curve"/>
      <point x="363" y="88"/>
      <point x="360" y="86"/>
      <point x="349" y="81" type="curve" smooth="yes"/>
      <point x="338" y="76"/>
      <point x="334" y="72"/>
    </contour>
    <contour>
      <point x="410" y="-50" type="line" smooth="yes"/>
      <point x="432" y="-89"/>
      <point x="489" y="-49"/>
      <point x="466" y="-12" type="curve" smooth="yes"/>
      <point x="350" y="177" type="line" smooth="yes"/>
      <point x="327" y="214"/>
      <point x="279" y="182"/>
      <point x="299" y="147" type="curve" smooth="yes"/>
    </contour>
    <contour>
      <point x="319" y="24" type="line"/>
      <point x="251" y="17" type="line"/>
      <point x="267" y="-86" type="line" smooth="yes"/>
      <point x="274" y="-130"/>
      <point x="329" y="-125"/>
      <point x="326" y="-85" type="curve" smooth="yes"/>
    </contour>
    <contour>
      <point x="437" y="105" type="line" smooth="yes"/>
      <point x="470" y="93"/>
      <point x="504" y="158"/>
      <point x="463" y="170" type="curve" smooth="yes"/>
      <point x="453" y="173" type="line"/>
      <point x="426" y="109" type="line"/>
    </contour>
    <contour>
      <point x="115" y="-51" type="line" smooth="yes"/>
      <point x="90" y="-94"/>
      <point x="155" y="-126"/>
      <point x="176" y="-80" type="curve" smooth="yes"/>
      <point x="213" y="2" type="line"/>
      <point x="162" y="31" type="line"/>
    </contour>
    <contour>
      <point x="114" y="105" type="curve" smooth="yes"/>
      <point x="96" y="105"/>
      <point x="83" y="118"/>
      <point x="83" y="138" type="curve" smooth="yes"/>
      <point x="83" y="158"/>
      <point x="96" y="175"/>
      <point x="118" y="175" type="curve" smooth="yes"/>
      <point x="139" y="175"/>
      <point x="157" y="162"/>
      <point x="157" y="143" type="curve" smooth="yes"/>
      <point x="157" y="122"/>
      <point x="138" y="105"/>
    </contour>
    <contour>
      <point x="123" y="220" type="curve" smooth="yes"/>
      <point x="94" y="220"/>
      <point x="74" y="238"/>
      <point x="74" y="263" type="curve" smooth="yes"/>
      <point x="74" y="286"/>
      <point x="94" y="304"/>
      <point x="124" y="304" type="curve" smooth="yes"/>
      <point x="148" y="304"/>
      <point x="161" y="286"/>
      <point x="161" y="263" type="curve" smooth="yes"/>
      <point x="161" y="238"/>
      <point x="145" y="220"/>
    </contour>
    <contour>
      <point x="145" y="344" type="curve" smooth="yes"/>
      <point x="122" y="344"/>
      <point x="107" y="360"/>
      <point x="107" y="379" type="curve" smooth="yes"/>
      <point x="107" y="401"/>
      <point x="122" y="419"/>
      <point x="145" y="419" type="curve" smooth="yes"/>
      <point x="169" y="419"/>
      <point x="187" y="403"/>
      <point x="187" y="381" type="curve" smooth="yes"/>
      <point x="187" y="362"/>
      <point x="169" y="344"/>
    </contour>
  </outline>
</glyph>
<glyph name="nine" format="2">
  <advance width="515"/>
  <unicode hex="0039"/>
  <outline>
    <contour>
      <point x="20" y="476" type="curve" smooth="yes"/>
      <point x="20" y="243"/>
      <point x="249" y="291"/>
      <point x="249" y="219" type="curve" smooth="yes"/>
      <point x="249" y="168"/>
      <point x="106" y="88"/>
      <point x="106" y="32" type="curve" smooth="yes"/>
      <point x="106" y="-1"/>
      <point x="143" y="-13"/>
      <point x="183" y="21" type="curve" smooth="yes"/>
      <point x="368" y="178"/>
      <point x="496" y="343"/>
      <point x="496" y="487" type="curve" smooth="yes"/>
      <point x="496" y="626"/>
      <point x="409" y="711"/>
      <point x="262" y="711" type="curve" smooth="yes"/>
      <point x="116" y="711"/>
      <point x="20" y="631"/>
    </contour>
    <contour>
      <point x="99" y="447" type="curve" smooth="yes"/>
      <point x="99" y="504"/>
      <point x="145" y="527"/>
      <point x="261" y="527" type="curve" smooth="yes"/>
      <point x="364" y="527"/>
      <point x="406" y="495"/>
      <point x="406" y="443" type="curve" smooth="yes"/>
      <point x="406" y="393"/>
      <point x="362" y="330"/>
      <point x="269" y="330" type="curve" smooth="yes"/>
      <point x="163" y="330"/>
      <point x="99" y="371"/>
    </contour>
    <contour>
      <point x="119" y="166" type="curve" smooth="yes"/>
      <point x="133" y="166"/>
      <point x="147" y="175"/>
      <point x="147" y="192" type="curve" smooth="yes"/>
      <point x="147" y="207"/>
      <point x="131" y="221"/>
      <point x="116" y="221" type="curve" smooth="yes"/>
      <point x="101" y="221"/>
      <point x="89" y="205"/>
      <point x="89" y="192" type="curve" smooth="yes"/>
      <point x="89" y="176"/>
      <point x="103" y="166"/>
    </contour>
    <contour>
      <point x="207" y="676" type="line" smooth="yes"/>
      <point x="210" y="704"/>
      <point x="164" y="700"/>
      <point x="164" y="677" type="curve" smooth="yes"/>
      <point x="164" y="667" type="line"/>
      <point x="206" y="667" type="line"/>
    </contour>
    <contour>
      <point x="258" y="655" type="curve" smooth="yes"/>
      <point x="283" y="655"/>
      <point x="302" y="639"/>
      <point x="302" y="615" type="curve" smooth="yes"/>
      <point x="302" y="591"/>
      <point x="287" y="571"/>
      <point x="262" y="571" type="curve" smooth="yes"/>
      <point x="239" y="571"/>
      <point x="218" y="586"/>
      <point x="218" y="609" type="curve" smooth="yes"/>
      <point x="218" y="635"/>
      <point x="235" y="655"/>
    </contour>
    <contour>
      <point x="171" y="74" type="curve" smooth="yes"/>
      <point x="171" y="74"/>
      <point x="171" y="74"/>
      <point x="171" y="74" type="curve" smooth="yes"/>
      <point x="171" y="74"/>
      <point x="171" y="74"/>
      <point x="171" y="74" type="curve" smooth="yes"/>
      <point x="171" y="74"/>
      <point x="171" y="74"/>
      <point x="171" y="74" type="curve" smooth="yes"/>
      <point x="171" y="74"/>
      <point x="171" y="74"/>
    </contour>
    <contour>
      <point x="139" y="629" type="curve" smooth="yes"/>
      <point x="162" y="629"/>
      <point x="179" y="612"/>
      <point x="179" y="592" type="curve" smooth="yes"/>
      <point x="179" y="566"/>
      <point x="162" y="551"/>
      <point x="139" y="551" type="curve" smooth="yes"/>
      <point x="118" y="551"/>
      <point x="101" y="569"/>
      <point x="101" y="596" type="curve" smooth="yes"/>
      <point x="101" y="617"/>
      <point x="118" y="629"/>
    </contour>
    <contour>
      <point x="383" y="632" type="curve" smooth="yes"/>
      <point x="412" y="632"/>
      <point x="429" y="614"/>
      <point x="429" y="589" type="curve" smooth="yes"/>
      <point x="429" y="566"/>
      <point x="409" y="548"/>
      <point x="379" y="548" type="curve" smooth="yes"/>
      <point x="355" y="548"/>
      <point x="342" y="566"/>
      <point x="342" y="589" type="curve" smooth="yes"/>
      <point x="342" y="614"/>
      <point x="361" y="632"/>
    </contour>
    <contour>
      <point x="225" y="71" type="line"/>
      <point x="289" y="23" type="line" smooth="yes"/>
      <point x="328" y="-7"/>
      <point x="377" y="55"/>
      <point x="335" y="84" type="curve" smooth="yes"/>
      <point x="279" y="123" type="line"/>
    </contour>
    <contour>
      <point x="230" y="158" type="line"/>
      <point x="133" y="225" type="line" smooth="yes"/>
      <point x="96" y="250"/>
      <point x="55" y="197"/>
      <point x="92" y="170" type="curve" smooth="yes"/>
      <point x="169" y="114" type="line"/>
    </contour>
  </outline>
</glyph>
<glyph name="colon" format="2">
  <advance width="276"/>
  <unicode hex="003A"/>
  <outline>
    <contour>
      <point x="137" y="-16" type="curve" smooth="yes"/>
      <point x="195" y="-16"/>
      <point x="232" y="25"/>
      <point x="232" y="84" type="curve" smooth="yes"/>
      <point x="232" y="149"/>
      <point x="204" y="197"/>
      <point x="149" y="197" type="curve" smooth="yes"/>
      <point x="85" y="197"/>
      <point x="42" y="155"/>
      <point x="42" y="85" type="curve" smooth="yes"/>
      <point x="42" y="20"/>
      <point x="77" y="-16"/>
    </contour>
    <contour>
      <point x="139" y="323" type="curve" smooth="yes"/>
      <point x="208" y="323"/>
      <point x="250" y="354"/>
      <point x="250" y="422" type="curve" smooth="yes"/>
      <point x="250" y="489"/>
      <point x="213" y="535"/>
      <point x="146" y="535" type="curve" smooth="yes"/>
      <point x="86" y="535"/>
      <point x="45" y="489"/>
      <point x="45" y="427" type="curve" smooth="yes"/>
      <point x="45" y="363"/>
      <point x="85" y="323"/>
    </contour>
    <contour>
      <point x="152" y="398" type="curve" smooth="yes"/>
      <point x="127" y="398"/>
      <point x="108" y="417"/>
      <point x="108" y="441" type="curve" smooth="yes"/>
      <point x="108" y="464"/>
      <point x="127" y="483"/>
      <point x="152" y="483" type="curve" smooth="yes"/>
      <point x="176" y="483"/>
      <point x="197" y="464"/>
      <point x="197" y="441" type="curve" smooth="yes"/>
      <point x="197" y="417"/>
      <point x="176" y="398"/>
    </contour>
    <contour>
      <point x="139" y="46" type="curve" smooth="yes"/>
      <point x="114" y="46"/>
      <point x="95" y="65"/>
      <point x="95" y="89" type="curve" smooth="yes"/>
      <point x="95" y="112"/>
      <point x="114" y="131"/>
      <point x="139" y="131" type="curve" smooth="yes"/>
      <point x="163" y="131"/>
      <point x="184" y="112"/>
      <point x="184" y="89" type="curve" smooth="yes"/>
      <point x="184" y="65"/>
      <point x="163" y="46"/>
    </contour>
  </outline>
</glyph>
<glyph name="less" format="2">
  <advance width="381"/>
  <unicode hex="003C"/>
  <outline>
    <contour>
      <point x="255" y="108" type="curve" smooth="yes"/>
      <point x="283" y="84"/>
      <point x="310" y="82"/>
      <point x="328" y="102" type="curve" smooth="yes"/>
      <point x="342" y="118"/>
      <point x="347" y="144"/>
      <point x="321" y="166" type="curve" smooth="yes"/>
      <point x="259" y="220"/>
      <point x="201" y="264"/>
      <point x="154" y="307" type="curve" smooth="yes"/>
      <point x="136" y="323"/>
      <point x="140" y="346"/>
      <point x="157" y="358" type="curve" smooth="yes"/>
      <point x="196" y="386"/>
      <point x="243" y="416"/>
      <point x="289" y="447" type="curve" smooth="yes"/>
      <point x="324" y="470"/>
      <point x="343" y="504"/>
      <point x="319" y="536" type="curve" smooth="yes"/>
      <point x="296" y="565"/>
      <point x="258" y="568"/>
      <point x="222" y="536" type="curve" smooth="yes"/>
      <point x="181" y="499"/>
      <point x="130" y="452"/>
      <point x="83" y="406" type="curve" smooth="yes"/>
      <point x="40" y="364"/>
      <point x="40" y="299"/>
      <point x="92" y="251" type="curve" smooth="yes"/>
      <point x="133" y="213"/>
      <point x="192" y="161"/>
    </contour>
  </outline>
</glyph>
<glyph name="equal" format="2">
  <advance width="438"/>
  <unicode hex="003D"/>
  <outline>
    <contour>
      <point x="123" y="428" type="curve" smooth="yes"/>
      <point x="76" y="427"/>
      <point x="61" y="409"/>
      <point x="60" y="386" type="curve" smooth="yes"/>
      <point x="59" y="361"/>
      <point x="77" y="345"/>
      <point x="118" y="342" type="curve" smooth="yes"/>
      <point x="182" y="338"/>
      <point x="267" y="335"/>
      <point x="326" y="334" type="curve" smooth="yes"/>
      <point x="367" y="333"/>
      <point x="387" y="351"/>
      <point x="387" y="378" type="curve" smooth="yes"/>
      <point x="387" y="404"/>
      <point x="369" y="425"/>
      <point x="333" y="426" type="curve" smooth="yes"/>
      <point x="272" y="428"/>
      <point x="196" y="429"/>
    </contour>
    <contour>
      <point x="102" y="279" type="curve" smooth="yes"/>
      <point x="63" y="280"/>
      <point x="48" y="263"/>
      <point x="47" y="238" type="curve" smooth="yes"/>
      <point x="46" y="212"/>
      <point x="65" y="194"/>
      <point x="104" y="191" type="curve" smooth="yes"/>
      <point x="177" y="186"/>
      <point x="259" y="181"/>
      <point x="334" y="178" type="curve" smooth="yes"/>
      <point x="377" y="176"/>
      <point x="396" y="193"/>
      <point x="397" y="224" type="curve" smooth="yes"/>
      <point x="398" y="252"/>
      <point x="381" y="272"/>
      <point x="336" y="274" type="curve" smooth="yes"/>
      <point x="269" y="277"/>
      <point x="176" y="279"/>
    </contour>
  </outline>
</glyph>
<glyph name="greater" format="2">
  <advance width="346"/>
  <unicode hex="003E"/>
  <outline>
    <contour>
      <point x="143" y="93" type="curve" smooth="yes"/>
      <point x="182" y="123"/>
      <point x="240" y="171"/>
      <point x="280" y="208" type="curve" smooth="yes"/>
      <point x="318" y="243"/>
      <point x="318" y="293"/>
      <point x="290" y="336" type="curve" smooth="yes"/>
      <point x="259" y="384"/>
      <point x="200" y="468"/>
      <point x="159" y="524" type="curve" smooth="yes"/>
      <point x="135" y="556"/>
      <point x="107" y="568"/>
      <point x="76" y="548" type="curve" smooth="yes"/>
      <point x="48" y="530"/>
      <point x="46" y="494"/>
      <point x="73" y="460" type="curve" smooth="yes"/>
      <point x="117" y="405"/>
      <point x="171" y="345"/>
      <point x="210" y="294" type="curve" smooth="yes"/>
      <point x="221" y="279"/>
      <point x="219" y="258"/>
      <point x="196" y="244" type="curve" smooth="yes"/>
      <point x="162" y="223"/>
      <point x="120" y="203"/>
      <point x="80" y="181" type="curve" smooth="yes"/>
      <point x="48" y="163"/>
      <point x="32" y="130"/>
      <point x="53" y="97" type="curve" smooth="yes"/>
      <point x="73" y="66"/>
      <point x="108" y="66"/>
    </contour>
  </outline>
</glyph>
<glyph name="at" format="2">
  <advance width="729"/>
  <unicode hex="0040"/>
  <outline>
    <contour>
      <point x="334" y="-83" type="curve" smooth="yes"/>
      <point x="387" y="-83"/>
      <point x="441" y="-75"/>
      <point x="479" y="-60" type="curve" smooth="yes"/>
      <point x="510" y="-48"/>
      <point x="527" y="-21"/>
      <point x="513" y="7" type="curve" smooth="yes"/>
      <point x="500" y="33"/>
      <point x="477" y="35"/>
      <point x="446" y="21" type="curve" smooth="yes"/>
      <point x="415" y="7"/>
      <point x="377" y="2"/>
      <point x="331" y="2" type="curve" smooth="yes"/>
      <point x="210" y="2"/>
      <point x="121" y="96"/>
      <point x="121" y="296" type="curve" smooth="yes"/>
      <point x="121" y="500"/>
      <point x="204" y="680"/>
      <point x="391" y="680" type="curve" smooth="yes"/>
      <point x="541" y="680"/>
      <point x="612" y="565"/>
      <point x="612" y="376" type="curve" smooth="yes"/>
      <point x="612" y="248"/>
      <point x="599" y="220"/>
      <point x="577" y="220" type="curve" smooth="yes"/>
      <point x="556" y="220"/>
      <point x="544" y="233"/>
      <point x="540" y="266" type="curve" smooth="yes"/>
      <point x="534" y="308"/>
      <point x="530" y="362"/>
      <point x="524" y="409" type="curve" smooth="yes"/>
      <point x="511" y="505"/>
      <point x="484" y="558"/>
      <point x="386" y="558" type="curve" smooth="yes"/>
      <point x="283" y="558"/>
      <point x="203" y="466"/>
      <point x="203" y="319" type="curve" smooth="yes"/>
      <point x="203" y="182"/>
      <point x="268" y="129"/>
      <point x="338" y="129" type="curve" smooth="yes"/>
      <point x="389" y="129"/>
      <point x="422" y="147"/>
      <point x="454" y="183" type="curve" smooth="yes"/>
      <point x="465" y="196"/>
      <point x="476" y="195"/>
      <point x="483" y="181" type="curve" smooth="yes"/>
      <point x="499" y="152"/>
      <point x="525" y="132"/>
      <point x="565" y="132" type="curve" smooth="yes"/>
      <point x="637" y="132"/>
      <point x="702" y="194"/>
      <point x="702" y="380" type="curve" smooth="yes"/>
      <point x="702" y="655"/>
      <point x="586" y="779"/>
      <point x="372" y="779" type="curve" smooth="yes"/>
      <point x="202" y="779"/>
      <point x="29" y="674"/>
      <point x="29" y="302" type="curve" smooth="yes"/>
      <point x="29" y="67"/>
      <point x="130" y="-83"/>
    </contour>
    <contour>
      <point x="337" y="381" type="curve" smooth="yes"/>
      <point x="337" y="444"/>
      <point x="358" y="484"/>
      <point x="394" y="484" type="curve" smooth="yes"/>
      <point x="416" y="484"/>
      <point x="432" y="468"/>
      <point x="437" y="441" type="curve" smooth="yes"/>
      <point x="443" y="408"/>
      <point x="447" y="378"/>
      <point x="449" y="348" type="curve" smooth="yes"/>
      <point x="453" y="300"/>
      <point x="434" y="278"/>
      <point x="396" y="278" type="curve" smooth="yes"/>
      <point x="354" y="278"/>
      <point x="337" y="318"/>
    </contour>
    <contour>
      <point x="146" y="34" type="curve" smooth="yes"/>
      <point x="166" y="52"/>
      <point x="171" y="72"/>
      <point x="153" y="92" type="curve" smooth="yes"/>
      <point x="132" y="116"/>
      <point x="119" y="109"/>
      <point x="97" y="91" type="curve" smooth="yes"/>
      <point x="75" y="73"/>
      <point x="49" y="50"/>
      <point x="20" y="24" type="curve" smooth="yes"/>
      <point x="-21" y="-11"/>
      <point x="-27" y="-28"/>
      <point x="-11" y="-48" type="curve" smooth="yes"/>
      <point x="6" y="-70"/>
      <point x="28" y="-65"/>
      <point x="64" y="-35" type="curve" smooth="yes"/>
      <point x="97" y="-8"/>
      <point x="124" y="14"/>
    </contour>
    <contour>
      <point x="112" y="133" type="curve" smooth="yes"/>
      <point x="121" y="137"/>
      <point x="120" y="156"/>
      <point x="113" y="177" type="curve" smooth="yes"/>
      <point x="104" y="201"/>
      <point x="97" y="214"/>
      <point x="86" y="211" type="curve" smooth="yes"/>
      <point x="79" y="209"/>
      <point x="70" y="205"/>
      <point x="64" y="202" type="curve" smooth="yes"/>
      <point x="55" y="198"/>
      <point x="52" y="186"/>
      <point x="62" y="157" type="curve" smooth="yes"/>
      <point x="73" y="123"/>
      <point x="78" y="118"/>
      <point x="92" y="123" type="curve" smooth="yes"/>
      <point x="99" y="126"/>
      <point x="105" y="130"/>
    </contour>
    <contour>
      <point x="283" y="247" type="curve" smooth="yes"/>
      <point x="263" y="247"/>
      <point x="248" y="261"/>
      <point x="248" y="281" type="curve" smooth="yes"/>
      <point x="248" y="300"/>
      <point x="263" y="313"/>
      <point x="283" y="313" type="curve" smooth="yes"/>
      <point x="303" y="313"/>
      <point x="317" y="300"/>
      <point x="317" y="281" type="curve" smooth="yes"/>
      <point x="317" y="261"/>
      <point x="303" y="247"/>
    </contour>
    <contour>
      <point x="350" y="179" type="curve" smooth="yes"/>
      <point x="332" y="179"/>
      <point x="316" y="193"/>
      <point x="316" y="213" type="curve" smooth="yes"/>
      <point x="316" y="233"/>
      <point x="330" y="247"/>
      <point x="350" y="247" type="curve" smooth="yes"/>
      <point x="370" y="247"/>
      <point x="384" y="233"/>
      <point x="384" y="213" type="curve" smooth="yes"/>
      <point x="384" y="193"/>
      <point x="369" y="179"/>
    </contour>
    <contour>
      <point x="340" y="31" type="curve" smooth="yes"/>
      <point x="343" y="59"/>
      <point x="342" y="84"/>
      <point x="316" y="88" type="curve" smooth="yes"/>
      <point x="291" y="92"/>
      <point x="280" y="77"/>
      <point x="274" y="51" type="curve" smooth="yes"/>
      <point x="261" y="-10"/>
      <point x="245" y="-94"/>
      <point x="233" y="-166" type="curve" smooth="yes"/>
      <point x="226" y="-207"/>
      <point x="228" y="-235"/>
      <point x="259" y="-240" type="curve" smooth="yes"/>
      <point x="290" y="-246"/>
      <point x="307" y="-224"/>
      <point x="312" y="-185" type="curve" smooth="yes"/>
      <point x="322" y="-113"/>
      <point x="334" y="-29"/>
    </contour>
  </outline>
</glyph>
<glyph name="A" format="2">
  <advance width="555"/>
  <unicode hex="0041"/>
  <unicode hex="0061"/>
  <anchor x="320" y="-16" name="bottom"/>
  <anchor x="495" y="-67" name="ogonek"/>
  <anchor x="279" y="682" name="top"/>
  <outline>
    <contour>
      <point x="16" y="83" type="curve" smooth="yes"/>
      <point x="-2" y="14"/>
      <point x="36" y="-38"/>
      <point x="104" y="-38" type="curve" smooth="yes"/>
      <point x="148" y="-38"/>
      <point x="190" y="-9"/>
      <point x="198" y="53" type="curve" smooth="yes"/>
      <point x="217" y="200"/>
      <point x="233" y="364"/>
      <point x="251" y="520" type="curve" smooth="yes"/>
      <point x="255" y="553"/>
      <point x="267" y="567"/>
      <point x="288" y="567" type="curve" smooth="yes"/>
      <point x="308" y="567"/>
      <point x="317" y="555"/>
      <point x="325" y="523" type="curve" smooth="yes"/>
      <point x="364" y="367"/>
      <point x="398" y="204"/>
      <point x="437" y="55" type="curve" smooth="yes"/>
      <point x="445" y="23"/>
      <point x="461" y="8"/>
      <point x="485" y="8" type="curve" smooth="yes"/>
      <point x="518" y="8"/>
      <point x="537" y="33"/>
      <point x="526" y="75" type="curve" smooth="yes"/>
      <point x="503" y="164"/>
      <point x="479" y="255"/>
      <point x="455" y="347" type="curve" smooth="yes"/>
      <point x="452" y="357"/>
      <point x="449" y="368"/>
      <point x="447" y="378" type="curve" smooth="yes"/>
      <point x="444" y="389"/>
      <point x="441" y="400"/>
      <point x="438" y="411" type="curve" smooth="yes"/>
      <point x="432" y="433"/>
      <point x="426" y="456"/>
      <point x="420" y="478" type="curve" smooth="yes"/>
      <point x="417" y="488"/>
      <point x="414" y="499"/>
      <point x="411" y="509" type="curve" smooth="yes"/>
      <point x="408" y="521"/>
      <point x="405" y="532"/>
      <point x="402" y="544" type="curve" smooth="yes"/>
      <point x="399" y="553"/>
      <point x="397" y="563"/>
      <point x="394" y="573" type="curve" smooth="yes"/>
      <point x="375" y="644"/>
      <point x="351" y="686"/>
      <point x="282" y="687" type="curve" smooth="yes"/>
      <point x="219" y="688"/>
      <point x="177" y="665"/>
      <point x="154" y="585" type="curve" smooth="yes"/>
      <point x="125" y="484"/>
      <point x="97" y="383"/>
      <point x="70" y="284" type="curve"/>
      <point x="143" y="275"/>
      <point x="164" y="264"/>
      <point x="159" y="236" type="curve" smooth="yes"/>
      <point x="154" y="208"/>
      <point x="135" y="206"/>
      <point x="54" y="226" type="curve"/>
      <point x="49" y="208"/>
      <point x="44" y="189"/>
      <point x="39" y="171" type="curve"/>
      <point x="126" y="154"/>
      <point x="141" y="144"/>
      <point x="137" y="120" type="curve" smooth="yes"/>
      <point x="132" y="92"/>
      <point x="103" y="92"/>
      <point x="24" y="113" type="curve"/>
      <point x="21" y="103"/>
      <point x="19" y="93"/>
    </contour>
    <contour>
      <point x="208" y="182" type="line"/>
      <point x="275" y="186"/>
      <point x="344" y="191"/>
      <point x="413" y="198" type="curve" smooth="yes"/>
      <point x="453" y="202"/>
      <point x="461" y="217"/>
      <point x="461" y="234" type="curve" smooth="yes"/>
      <point x="461" y="254"/>
      <point x="450" y="275"/>
      <point x="407" y="272" type="curve" smooth="yes"/>
      <point x="343" y="268"/>
      <point x="279" y="264"/>
      <point x="213" y="258" type="curve"/>
    </contour>
    <contour>
      <point x="471" y="121" type="curve" smooth="yes"/>
      <point x="478" y="120"/>
      <point x="488" y="119"/>
      <point x="496" y="119" type="curve"/>
      <point x="483" y="178" type="line"/>
      <point x="480" y="178"/>
      <point x="477" y="178"/>
      <point x="474" y="178" type="curve" smooth="yes"/>
      <point x="456" y="178"/>
      <point x="447" y="164"/>
      <point x="447" y="150" type="curve" smooth="yes"/>
      <point x="447" y="136"/>
      <point x="456" y="123"/>
    </contour>
    <contour>
      <point x="74" y="2" type="curve"/>
      <point x="103" y="75" type="line"/>
      <point x="76" y="82"/>
      <point x="64" y="80"/>
      <point x="54" y="47" type="curve" smooth="yes"/>
      <point x="46" y="21"/>
      <point x="53" y="12"/>
    </contour>
    <contour>
      <point x="83" y="-3" type="curve"/>
      <point x="103" y="66" type="line"/>
      <point x="73" y="72"/>
      <point x="52" y="71"/>
      <point x="44" y="41" type="curve" smooth="yes"/>
      <point x="36" y="12"/>
      <point x="51" y="2"/>
    </contour>
    <contour>
      <point x="421" y="423" type="line"/>
      <point x="508" y="442"/>
      <point x="532" y="458"/>
      <point x="524" y="487" type="curve" smooth="yes"/>
      <point x="516" y="516"/>
      <point x="492" y="517"/>
      <point x="399" y="489" type="curve"/>
    </contour>
    <contour>
      <point x="442" y="301" type="line"/>
      <point x="522" y="309"/>
      <point x="545" y="317"/>
      <point x="539" y="353" type="curve" smooth="yes"/>
      <point x="534" y="383"/>
      <point x="513" y="385"/>
      <point x="432" y="368" type="curve"/>
    </contour>
  </outline>
</glyph>
<glyph name="F" format="2">
  <advance width="460"/>
  <unicode hex="0046"/>
  <unicode hex="0066"/>
  <guideline x="403" y="472" angle="19.44"/>
  <anchor x="159" y="0" name="bottom"/>
  <anchor x="270" y="700" name="top"/>
  <outline>
    <contour>
      <point x="66" y="37" type="curve" smooth="yes"/>
      <point x="67" y="-4"/>
      <point x="87" y="-19"/>
      <point x="117" y="-18" type="curve" smooth="yes"/>
      <point x="148" y="-17"/>
      <point x="173" y="-3"/>
      <point x="169" y="33" type="curve" smooth="yes"/>
      <point x="164" y="72"/>
      <point x="154" y="103"/>
      <point x="151" y="140" type="curve" smooth="yes"/>
      <point x="149" y="165"/>
      <point x="154" y="175"/>
      <point x="185" y="174" type="curve" smooth="yes"/>
      <point x="236" y="173"/>
      <point x="287" y="165"/>
      <point x="336" y="163" type="curve" smooth="yes"/>
      <point x="395" y="161"/>
      <point x="399" y="243"/>
      <point x="341" y="247" type="curve" smooth="yes"/>
      <point x="299" y="250"/>
      <point x="251" y="244"/>
      <point x="205" y="247" type="curve" smooth="yes"/>
      <point x="181" y="249"/>
      <point x="178" y="279"/>
      <point x="206" y="285" type="curve" smooth="yes"/>
      <point x="239" y="292"/>
      <point x="268" y="292"/>
      <point x="307" y="301" type="curve" smooth="yes"/>
      <point x="362" y="312"/>
      <point x="348" y="397"/>
      <point x="283" y="384" type="curve" smooth="yes"/>
      <point x="246" y="376"/>
      <point x="211" y="360"/>
      <point x="177" y="352" type="curve" smooth="yes"/>
      <point x="158" y="348"/>
      <point x="149" y="354"/>
      <point x="149" y="376" type="curve" smooth="yes"/>
      <point x="149" y="403"/>
      <point x="152" y="430"/>
      <point x="156" y="455" type="curve" smooth="yes"/>
      <point x="158" y="470"/>
      <point x="162" y="479"/>
      <point x="168" y="485" type="curve" smooth="yes"/>
      <point x="176" y="493"/>
      <point x="189" y="493"/>
      <point x="213" y="491" type="curve" smooth="yes"/>
      <point x="254" y="487"/>
      <point x="293" y="476"/>
      <point x="334" y="471" type="curve" smooth="yes"/>
      <point x="423" y="460"/>
      <point x="473" y="500"/>
      <point x="473" y="584" type="curve" smooth="yes"/>
      <point x="473" y="646"/>
      <point x="433" y="705"/>
      <point x="362" y="703" type="curve" smooth="yes"/>
      <point x="289" y="701"/>
      <point x="215" y="695"/>
      <point x="142" y="687" type="curve" smooth="yes"/>
      <point x="96" y="682"/>
      <point x="76" y="661"/>
      <point x="74" y="618" type="curve" smooth="yes"/>
      <point x="73" y="598"/>
      <point x="72" y="579"/>
      <point x="71" y="559" type="curve" smooth="yes"/>
      <point x="70" y="549"/>
      <point x="70" y="539"/>
      <point x="70" y="530" type="curve" smooth="yes"/>
      <point x="70" y="520"/>
      <point x="69" y="510"/>
      <point x="69" y="501" type="curve" smooth="yes"/>
      <point x="68" y="480"/>
      <point x="68" y="458"/>
      <point x="67" y="437" type="curve" smooth="yes"/>
      <point x="66" y="426"/>
      <point x="66" y="416"/>
      <point x="66" y="406" type="curve" smooth="yes"/>
      <point x="66" y="395"/>
      <point x="66" y="385"/>
      <point x="66" y="374" type="curve" smooth="yes"/>
      <point x="64" y="273"/>
      <point x="64" y="164"/>
    </contour>
    <contour>
      <point x="181" y="558" type="curve" smooth="yes"/>
      <point x="162" y="558"/>
      <point x="148" y="572"/>
      <point x="148" y="591" type="curve" smooth="yes"/>
      <point x="148" y="608"/>
      <point x="162" y="622"/>
      <point x="181" y="622" type="curve" smooth="yes"/>
      <point x="198" y="622"/>
      <point x="212" y="608"/>
      <point x="212" y="591" type="curve" smooth="yes"/>
      <point x="212" y="572"/>
      <point x="198" y="558"/>
    </contour>
    <contour>
      <point x="275" y="555" type="curve" smooth="yes"/>
      <point x="255" y="555"/>
      <point x="240" y="570"/>
      <point x="240" y="590" type="curve" smooth="yes"/>
      <point x="240" y="609"/>
      <point x="255" y="624"/>
      <point x="275" y="624" type="curve" smooth="yes"/>
      <point x="294" y="624"/>
      <point x="309" y="609"/>
      <point x="309" y="590" type="curve" smooth="yes"/>
      <point x="309" y="570"/>
      <point x="294" y="555"/>
    </contour>
    <contour>
      <point x="373" y="548" type="curve" smooth="yes"/>
      <point x="351" y="548"/>
      <point x="335" y="564"/>
      <point x="335" y="586" type="curve" smooth="yes"/>
      <point x="335" y="607"/>
      <point x="351" y="623"/>
      <point x="373" y="623" type="curve" smooth="yes"/>
      <point x="394" y="623"/>
      <point x="410" y="607"/>
      <point x="410" y="586" type="curve" smooth="yes"/>
      <point x="410" y="564"/>
      <point x="394" y="548"/>
    </contour>
  </outline>
</glyph>
<glyph name="H" format="2">
  <advance width="608"/>
  <unicode hex="0048"/>
  <unicode hex="0068"/>
  <anchor x="248" y="-20" name="bottom"/>
  <anchor x="320" y="710" name="top"/>
  <outline>
    <contour>
      <point x="83" y="69" type="curve" smooth="yes"/>
      <point x="85" y="20"/>
      <point x="107" y="-21"/>
      <point x="170" y="-21" type="curve" smooth="yes"/>
      <point x="239" y="-21"/>
      <point x="266" y="18"/>
      <point x="262" y="83" type="curve" smooth="yes"/>
      <point x="259" y="138"/>
      <point x="251" y="188"/>
      <point x="248" y="233" type="curve" smooth="yes"/>
      <point x="246" y="256"/>
      <point x="257" y="263"/>
      <point x="275" y="265" type="curve" smooth="yes"/>
      <point x="279" y="265"/>
      <point x="283" y="266"/>
      <point x="288" y="266" type="curve" smooth="yes"/>
      <point x="295" y="267"/>
      <point x="302" y="267"/>
      <point x="309" y="268" type="curve" smooth="yes"/>
      <point x="314" y="268"/>
      <point x="320" y="269"/>
      <point x="326" y="269" type="curve" smooth="yes"/>
      <point x="338" y="269"/>
      <point x="350" y="270"/>
      <point x="361" y="270" type="curve" smooth="yes"/>
      <point x="366" y="270"/>
      <point x="372" y="270"/>
      <point x="378" y="270" type="curve" smooth="yes"/>
      <point x="383" y="270"/>
      <point x="389" y="270"/>
      <point x="395" y="270" type="curve" smooth="yes"/>
      <point x="404" y="270"/>
      <point x="412" y="270"/>
      <point x="421" y="270" type="curve" smooth="yes"/>
      <point x="439" y="270"/>
      <point x="449" y="260"/>
      <point x="449" y="239" type="curve" smooth="yes"/>
      <point x="450" y="190"/>
      <point x="445" y="134"/>
      <point x="446" y="77" type="curve" smooth="yes"/>
      <point x="447" y="26"/>
      <point x="456" y="6"/>
      <point x="496" y="6" type="curve" smooth="yes"/>
      <point x="534" y="6"/>
      <point x="548" y="28"/>
      <point x="546" y="67" type="curve" smooth="yes"/>
      <point x="535" y="259"/>
      <point x="522" y="450"/>
      <point x="505" y="642" type="curve" smooth="yes"/>
      <point x="502" y="675"/>
      <point x="492" y="699"/>
      <point x="459" y="699" type="curve" smooth="yes"/>
      <point x="423" y="699"/>
      <point x="413" y="673"/>
      <point x="416" y="638" type="curve" smooth="yes"/>
      <point x="423" y="550"/>
      <point x="436" y="462"/>
      <point x="443" y="378" type="curve" smooth="yes"/>
      <point x="445" y="357"/>
      <point x="435" y="346"/>
      <point x="414" y="345" type="curve" smooth="yes"/>
      <point x="342" y="341"/>
      <point x="267" y="339"/>
      <point x="191" y="341" type="curve" smooth="yes"/>
      <point x="174" y="341"/>
      <point x="167" y="350"/>
      <point x="169" y="377" type="curve" smooth="yes"/>
      <point x="174" y="462"/>
      <point x="185" y="544"/>
      <point x="190" y="628" type="curve" smooth="yes"/>
      <point x="193" y="681"/>
      <point x="177" y="710"/>
      <point x="133" y="710" type="curve" smooth="yes"/>
      <point x="94" y="710"/>
      <point x="69" y="687"/>
      <point x="69" y="628" type="curve" smooth="yes"/>
      <point x="70" y="508"/>
      <point x="71" y="387"/>
      <point x="75" y="267" type="curve"/>
      <point x="148" y="265"/>
      <point x="166" y="254"/>
      <point x="165" y="229" type="curve" smooth="yes"/>
      <point x="164" y="206"/>
      <point x="141" y="200"/>
      <point x="78" y="199" type="curve"/>
      <point x="78" y="179"/>
      <point x="79" y="158"/>
      <point x="80" y="138" type="curve"/>
      <point x="171" y="144"/>
      <point x="188" y="132"/>
      <point x="188" y="111" type="curve" smooth="yes"/>
      <point x="188" y="89"/>
      <point x="168" y="74"/>
      <point x="83" y="78" type="curve"/>
      <point x="83" y="75"/>
      <point x="83" y="72"/>
    </contour>
    <contour>
      <point x="222" y="273" type="curve" smooth="yes"/>
      <point x="227" y="273"/>
      <point x="231" y="278"/>
      <point x="231" y="283" type="curve" smooth="yes"/>
      <point x="231" y="288"/>
      <point x="227" y="292"/>
      <point x="222" y="292" type="curve" smooth="yes"/>
      <point x="217" y="292"/>
      <point x="212" y="288"/>
      <point x="212" y="283" type="curve" smooth="yes"/>
      <point x="212" y="278"/>
      <point x="217" y="273"/>
    </contour>
    <contour>
      <point x="272" y="501" type="curve" smooth="yes"/>
      <point x="230" y="503"/>
      <point x="189" y="503"/>
      <point x="153" y="502" type="curve" smooth="yes"/>
      <point x="108" y="501"/>
      <point x="95" y="484"/>
      <point x="95" y="465" type="curve" smooth="yes"/>
      <point x="95" y="447"/>
      <point x="108" y="429"/>
      <point x="153" y="430" type="curve" smooth="yes"/>
      <point x="190" y="431"/>
      <point x="228" y="432"/>
      <point x="275" y="436" type="curve" smooth="yes"/>
      <point x="307" y="438"/>
      <point x="325" y="448"/>
      <point x="325" y="470" type="curve" smooth="yes"/>
      <point x="325" y="490"/>
      <point x="309" y="499"/>
    </contour>
    <contour>
      <point x="489" y="10" type="curve" smooth="yes"/>
      <point x="509" y="10"/>
      <point x="526" y="27"/>
      <point x="526" y="47" type="curve" smooth="yes"/>
      <point x="526" y="67"/>
      <point x="509" y="84"/>
      <point x="489" y="84" type="curve" smooth="yes"/>
      <point x="469" y="84"/>
      <point x="452" y="67"/>
      <point x="452" y="47" type="curve" smooth="yes"/>
      <point x="452" y="27"/>
      <point x="469" y="10"/>
    </contour>
    <contour>
      <point x="540" y="623" type="curve" smooth="yes"/>
      <point x="483" y="628"/>
      <point x="426" y="632"/>
      <point x="362" y="635" type="curve" smooth="yes"/>
      <point x="325" y="637"/>
      <point x="300" y="628"/>
      <point x="300" y="599" type="curve" smooth="yes"/>
      <point x="300" y="572"/>
      <point x="321" y="562"/>
      <point x="364" y="560" type="curve" smooth="yes"/>
      <point x="421" y="558"/>
      <point x="479" y="557"/>
      <point x="536" y="557" type="curve" smooth="yes"/>
      <point x="577" y="557"/>
      <point x="598" y="563"/>
      <point x="598" y="587" type="curve" smooth="yes"/>
      <point x="598" y="608"/>
      <point x="583" y="620"/>
    </contour>
  </outline>
</glyph>
<glyph name="M" format="2">
  <advance width="768"/>
  <unicode hex="004D"/>
  <unicode hex="006D"/>
  <anchor x="373" y="0" name="bottom"/>
  <anchor x="385" y="700" name="top"/>
  <outline>
    <contour>
      <point x="42" y="158" type="curve" smooth="yes"/>
      <point x="33" y="87"/>
      <point x="52" y="28"/>
      <point x="131" y="28" type="curve" smooth="yes"/>
      <point x="205" y="28"/>
      <point x="230" y="73"/>
      <point x="227" y="151" type="curve" smooth="yes"/>
      <point x="222" y="268"/>
      <point x="203" y="375"/>
      <point x="199" y="501" type="curve" smooth="yes"/>
      <point x="198" y="527"/>
      <point x="226" y="535"/>
      <point x="239" y="506" type="curve" smooth="yes"/>
      <point x="269" y="438"/>
      <point x="292" y="359"/>
      <point x="333" y="277" type="curve" smooth="yes"/>
      <point x="344" y="255"/>
      <point x="361" y="240"/>
      <point x="386" y="240" type="curve" smooth="yes"/>
      <point x="411" y="240"/>
      <point x="424" y="249"/>
      <point x="438" y="270" type="curve" smooth="yes"/>
      <point x="457" y="297"/>
      <point x="474" y="331"/>
      <point x="493" y="359" type="curve" smooth="yes"/>
      <point x="510" y="385"/>
      <point x="536" y="380"/>
      <point x="544" y="355" type="curve" smooth="yes"/>
      <point x="574" y="261"/>
      <point x="593" y="164"/>
      <point x="626" y="67" type="curve" smooth="yes"/>
      <point x="638" y="33"/>
      <point x="649" y="19"/>
      <point x="669" y="19" type="curve" smooth="yes"/>
      <point x="692" y="19"/>
      <point x="706" y="38"/>
      <point x="704" y="74" type="curve" smooth="yes"/>
      <point x="695" y="246"/>
      <point x="681" y="417"/>
      <point x="664" y="587" type="curve" smooth="yes"/>
      <point x="658" y="646"/>
      <point x="635" y="676"/>
      <point x="595" y="676" type="curve" smooth="yes"/>
      <point x="560" y="676"/>
      <point x="540" y="658"/>
      <point x="520" y="615" type="curve" smooth="yes"/>
      <point x="486" y="543"/>
      <point x="449" y="437"/>
      <point x="419" y="375" type="curve" smooth="yes"/>
      <point x="414" y="365"/>
      <point x="410" y="360"/>
      <point x="403" y="360" type="curve" smooth="yes"/>
      <point x="397" y="360"/>
      <point x="393" y="364"/>
      <point x="389" y="373" type="curve" smooth="yes"/>
      <point x="381" y="392"/>
      <point x="373" y="411"/>
      <point x="366" y="431" type="curve" smooth="yes"/>
      <point x="362" y="441"/>
      <point x="359" y="450"/>
      <point x="355" y="459" type="curve" smooth="yes"/>
      <point x="352" y="469"/>
      <point x="349" y="478"/>
      <point x="346" y="487" type="curve" smooth="yes"/>
      <point x="343" y="497"/>
      <point x="339" y="507"/>
      <point x="336" y="517" type="curve" smooth="yes"/>
      <point x="332" y="527"/>
      <point x="329" y="537"/>
      <point x="326" y="547" type="curve" smooth="yes"/>
      <point x="322" y="556"/>
      <point x="319" y="564"/>
      <point x="316" y="573" type="curve" smooth="yes"/>
      <point x="313" y="582"/>
      <point x="310" y="591"/>
      <point x="306" y="600" type="curve" smooth="yes"/>
      <point x="290" y="639"/>
      <point x="267" y="669"/>
      <point x="216" y="669" type="curve" smooth="yes"/>
      <point x="164" y="669"/>
      <point x="129" y="636"/>
      <point x="113" y="562" type="curve" smooth="yes"/>
      <point x="99" y="497"/>
      <point x="85" y="426"/>
      <point x="72" y="354" type="curve"/>
      <point x="129" y="358"/>
      <point x="159" y="353"/>
      <point x="157" y="323" type="curve" smooth="yes"/>
      <point x="155" y="295"/>
      <point x="121" y="289"/>
      <point x="61" y="290" type="curve"/>
      <point x="57" y="271"/>
      <point x="54" y="253"/>
      <point x="52" y="234" type="curve"/>
      <point x="148" y="221"/>
      <point x="166" y="211"/>
      <point x="163" y="185" type="curve" smooth="yes"/>
      <point x="160" y="161"/>
      <point x="137" y="157"/>
      <point x="43" y="168" type="curve"/>
      <point x="43" y="165"/>
      <point x="42" y="161"/>
    </contour>
    <contour>
      <point x="580" y="436" type="curve" smooth="yes"/>
      <point x="554" y="436"/>
      <point x="534" y="456"/>
      <point x="534" y="482" type="curve" smooth="yes"/>
      <point x="534" y="507"/>
      <point x="554" y="527"/>
      <point x="580" y="527" type="curve" smooth="yes"/>
      <point x="605" y="527"/>
      <point x="625" y="507"/>
      <point x="625" y="482" type="curve" smooth="yes"/>
      <point x="625" y="456"/>
      <point x="605" y="436"/>
    </contour>
    <contour>
      <point x="382" y="67" type="curve" smooth="yes"/>
      <point x="414" y="67"/>
      <point x="443" y="94"/>
      <point x="443" y="130" type="curve" smooth="yes"/>
      <point x="443" y="164"/>
      <point x="414" y="193"/>
      <point x="382" y="193" type="curve" smooth="yes"/>
      <point x="344" y="193"/>
      <point x="317" y="164"/>
      <point x="317" y="130" type="curve" smooth="yes"/>
      <point x="317" y="94"/>
      <point x="344" y="67"/>
    </contour>
    <contour>
      <point x="705" y="186" type="curve" smooth="yes"/>
      <point x="753" y="197"/>
      <point x="772" y="209"/>
      <point x="765" y="240" type="curve" smooth="yes"/>
      <point x="759" y="267"/>
      <point x="729" y="263"/>
      <point x="697" y="258" type="curve" smooth="yes"/>
      <point x="643" y="249"/>
      <point x="592" y="237"/>
      <point x="542" y="222" type="curve" smooth="yes"/>
      <point x="503" y="210"/>
      <point x="484" y="200"/>
      <point x="491" y="174" type="curve" smooth="yes"/>
      <point x="498" y="148"/>
      <point x="518" y="153"/>
      <point x="556" y="158" type="curve" smooth="yes"/>
      <point x="606" y="165"/>
      <point x="655" y="175"/>
    </contour>
  </outline>
</glyph>
<glyph name="P" format="2">
  <advance width="555"/>
  <unicode hex="0050"/>
  <unicode hex="0070"/>
  <anchor x="128" y="0" name="bottom"/>
  <anchor x="262" y="701" name="top"/>
  <outline>
    <contour>
      <point x="191" y="382" type="curve" smooth="yes"/>
      <point x="200" y="433"/>
      <point x="222" y="481"/>
      <point x="252" y="511" type="curve" smooth="yes"/>
      <point x="280" y="539"/>
      <point x="314" y="553"/>
      <point x="357" y="553" type="curve" smooth="yes"/>
      <point x="410" y="553"/>
      <point x="452" y="516"/>
      <point x="452" y="445" type="curve" smooth="yes"/>
      <point x="452" y="330"/>
      <point x="339" y="307"/>
      <point x="224" y="307" type="curve" smooth="yes"/>
      <point x="201" y="307"/>
      <point x="195" y="309"/>
      <point x="190" y="314" type="curve" smooth="yes"/>
      <point x="183" y="321"/>
      <point x="182" y="329"/>
    </contour>
    <contour>
      <point x="94" y="50" type="curve" smooth="yes"/>
      <point x="97" y="9"/>
      <point x="106" y="-17"/>
      <point x="144" y="-17" type="curve" smooth="yes"/>
      <point x="181" y="-17"/>
      <point x="191" y="7"/>
      <point x="191" y="46" type="curve" smooth="yes"/>
      <point x="191" y="82"/>
      <point x="182" y="135"/>
      <point x="180" y="181" type="curve" smooth="yes"/>
      <point x="178" y="230"/>
      <point x="200" y="242"/>
      <point x="285" y="246" type="curve" smooth="yes"/>
      <point x="387" y="252"/>
      <point x="432" y="265"/>
      <point x="479" y="312" type="curve" smooth="yes"/>
      <point x="512" y="345"/>
      <point x="533" y="395"/>
      <point x="533" y="474" type="curve" smooth="yes"/>
      <point x="533" y="549"/>
      <point x="508" y="611"/>
      <point x="465" y="654" type="curve" smooth="yes"/>
      <point x="423" y="696"/>
      <point x="356" y="717"/>
      <point x="267" y="710" type="curve" smooth="yes"/>
      <point x="194" y="704"/>
      <point x="150" y="694"/>
      <point x="117" y="661" type="curve" smooth="yes"/>
      <point x="90" y="634"/>
      <point x="79" y="591"/>
      <point x="78" y="528" type="curve" smooth="yes"/>
      <point x="77" y="386"/>
      <point x="83" y="210"/>
    </contour>
    <contour>
      <point x="451" y="340" type="curve" smooth="yes"/>
      <point x="447" y="342"/>
      <point x="444" y="345"/>
      <point x="440" y="347" type="curve" smooth="yes"/>
      <point x="433" y="351"/>
      <point x="423" y="345"/>
      <point x="416" y="336" type="curve" smooth="yes"/>
      <point x="410" y="327"/>
      <point x="408" y="315"/>
      <point x="417" y="309" type="curve" smooth="yes"/>
      <point x="420" y="307"/>
      <point x="422" y="306"/>
      <point x="425" y="304" type="curve" smooth="yes"/>
      <point x="435" y="298"/>
      <point x="447" y="305"/>
      <point x="454" y="315" type="curve" smooth="yes"/>
      <point x="459" y="324"/>
      <point x="460" y="334"/>
    </contour>
    <contour>
      <point x="476" y="582" type="curve" smooth="yes"/>
      <point x="473" y="581"/>
      <point x="469" y="579"/>
      <point x="466" y="578" type="curve" smooth="yes"/>
      <point x="455" y="574"/>
      <point x="454" y="558"/>
      <point x="460" y="544" type="curve" smooth="yes"/>
      <point x="465" y="531"/>
      <point x="477" y="521"/>
      <point x="491" y="526" type="curve" smooth="yes"/>
      <point x="494" y="527"/>
      <point x="496" y="528"/>
      <point x="499" y="529" type="curve" smooth="yes"/>
      <point x="508" y="532"/>
      <point x="509" y="548"/>
      <point x="504" y="562" type="curve" smooth="yes"/>
      <point x="499" y="575"/>
      <point x="488" y="587"/>
    </contour>
    <contour>
      <point x="283" y="175" type="curve" smooth="yes"/>
      <point x="209" y="183"/>
      <point x="135" y="187"/>
      <point x="61" y="189" type="curve" smooth="yes"/>
      <point x="30" y="190"/>
      <point x="-1" y="185"/>
      <point x="-1" y="157" type="curve" smooth="yes"/>
      <point x="-1" y="133"/>
      <point x="21" y="125"/>
      <point x="57" y="121" type="curve" smooth="yes"/>
      <point x="130" y="112"/>
      <point x="204" y="105"/>
      <point x="277" y="100" type="curve" smooth="yes"/>
      <point x="313" y="98"/>
      <point x="346" y="102"/>
      <point x="346" y="136" type="curve" smooth="yes"/>
      <point x="346" y="162"/>
      <point x="324" y="171"/>
    </contour>
    <contour>
      <point x="274" y="597" type="curve" smooth="yes"/>
      <point x="253" y="597"/>
      <point x="238" y="612"/>
      <point x="238" y="633" type="curve" smooth="yes"/>
      <point x="238" y="651"/>
      <point x="253" y="667"/>
      <point x="274" y="667" type="curve" smooth="yes"/>
      <point x="292" y="667"/>
      <point x="308" y="651"/>
      <point x="308" y="633" type="curve" smooth="yes"/>
      <point x="308" y="612"/>
      <point x="292" y="597"/>
    </contour>
    <contour>
      <point x="168" y="500" type="curve" smooth="yes"/>
      <point x="142" y="500"/>
      <point x="122" y="520"/>
      <point x="122" y="544" type="curve" smooth="yes"/>
      <point x="122" y="569"/>
      <point x="142" y="587"/>
      <point x="168" y="587" type="curve" smooth="yes"/>
      <point x="192" y="587"/>
      <point x="211" y="569"/>
      <point x="211" y="544" type="curve" smooth="yes"/>
      <point x="211" y="520"/>
      <point x="192" y="500"/>
    </contour>
  </outline>
</glyph>
<glyph name="U" format="2">
  <advance width="645"/>
  <unicode hex="0055"/>
  <unicode hex="0075"/>
  <anchor x="300" y="-66" name="bottom"/>
  <anchor x="417" y="0" name="ogonek"/>
  <anchor x="329" y="639" name="top"/>
  <outline>
    <contour>
      <point x="305" y="-27" type="curve" smooth="yes"/>
      <point x="447" y="-27"/>
      <point x="535" y="46"/>
      <point x="555" y="264" type="curve" smooth="yes"/>
      <point x="565" y="373"/>
      <point x="570" y="512"/>
      <point x="569" y="620" type="curve" smooth="yes"/>
      <point x="569" y="651"/>
      <point x="560" y="669"/>
      <point x="540" y="669" type="curve" smooth="yes"/>
      <point x="517" y="669"/>
      <point x="506" y="654"/>
      <point x="502" y="624" type="curve" smooth="yes"/>
      <point x="487" y="520"/>
      <point x="478" y="428"/>
      <point x="465" y="331" type="curve" smooth="yes"/>
      <point x="454" y="252"/>
      <point x="406" y="186"/>
      <point x="308" y="186" type="curve" smooth="yes"/>
      <point x="221" y="186"/>
      <point x="185" y="223"/>
      <point x="178" y="352" type="curve" smooth="yes"/>
      <point x="173" y="443"/>
      <point x="173" y="545"/>
      <point x="168" y="642" type="curve" smooth="yes"/>
      <point x="166" y="680"/>
      <point x="154" y="697"/>
      <point x="128" y="697" type="curve" smooth="yes"/>
      <point x="101" y="697"/>
      <point x="88" y="678"/>
      <point x="86" y="640" type="curve" smooth="yes"/>
      <point x="81" y="523"/>
      <point x="79" y="400"/>
      <point x="81" y="271" type="curve" smooth="yes"/>
      <point x="84" y="64"/>
      <point x="161" y="-27"/>
    </contour>
    <contour>
      <point x="278" y="344" type="curve" smooth="yes"/>
      <point x="307" y="344"/>
      <point x="330" y="367"/>
      <point x="330" y="396" type="curve" smooth="yes"/>
      <point x="330" y="425"/>
      <point x="307" y="448"/>
      <point x="278" y="448" type="curve" smooth="yes"/>
      <point x="249" y="448"/>
      <point x="226" y="425"/>
      <point x="226" y="396" type="curve" smooth="yes"/>
      <point x="226" y="367"/>
      <point x="249" y="344"/>
    </contour>
    <contour>
      <point x="215" y="587" type="curve" smooth="yes"/>
      <point x="161" y="581"/>
      <point x="108" y="573"/>
      <point x="56" y="563" type="curve" smooth="yes"/>
      <point x="14" y="555"/>
      <point x="-2" y="544"/>
      <point x="-2" y="524" type="curve" smooth="yes"/>
      <point x="-2" y="493"/>
      <point x="25" y="495"/>
      <point x="71" y="500" type="curve" smooth="yes"/>
      <point x="123" y="506"/>
      <point x="177" y="515"/>
      <point x="231" y="525" type="curve" smooth="yes"/>
      <point x="269" y="532"/>
      <point x="289" y="541"/>
      <point x="289" y="563" type="curve" smooth="yes"/>
      <point x="289" y="592"/>
      <point x="258" y="592"/>
    </contour>
    <contour>
      <point x="505" y="529" type="curve" smooth="yes"/>
      <point x="478" y="528"/>
      <point x="451" y="525"/>
      <point x="424" y="522" type="curve" smooth="yes"/>
      <point x="379" y="516"/>
      <point x="358" y="507"/>
      <point x="358" y="486" type="curve" smooth="yes"/>
      <point x="358" y="451"/>
      <point x="392" y="454"/>
      <point x="434" y="459" type="curve" smooth="yes"/>
      <point x="461" y="462"/>
      <point x="487" y="466"/>
      <point x="514" y="471" type="curve" smooth="yes"/>
      <point x="537" y="475"/>
      <point x="546" y="484"/>
      <point x="546" y="504" type="curve" smooth="yes"/>
      <point x="546" y="522"/>
      <point x="539" y="530"/>
    </contour>
    <contour>
      <point x="569" y="376" type="curve" smooth="yes"/>
      <point x="526" y="381"/>
      <point x="491" y="385"/>
      <point x="456" y="387" type="curve" smooth="yes"/>
      <point x="410" y="390"/>
      <point x="372" y="390"/>
      <point x="372" y="358" type="curve" smooth="yes"/>
      <point x="372" y="333"/>
      <point x="396" y="325"/>
      <point x="449" y="319" type="curve" smooth="yes"/>
      <point x="485" y="315"/>
      <point x="521" y="313"/>
      <point x="557" y="311" type="curve" smooth="yes"/>
      <point x="601" y="308"/>
      <point x="633" y="308"/>
      <point x="633" y="340" type="curve" smooth="yes"/>
      <point x="633" y="361"/>
      <point x="614" y="371"/>
    </contour>
    <contour>
      <point x="336" y="37" type="curve" smooth="yes"/>
      <point x="312" y="37"/>
      <point x="293" y="56"/>
      <point x="293" y="80" type="curve" smooth="yes"/>
      <point x="293" y="104"/>
      <point x="312" y="123"/>
      <point x="336" y="123" type="curve" smooth="yes"/>
      <point x="360" y="123"/>
      <point x="379" y="104"/>
      <point x="379" y="80" type="curve" smooth="yes"/>
      <point x="379" y="56"/>
      <point x="360" y="37"/>
    </contour>
    <contour>
      <point x="446" y="93" type="curve" smooth="yes"/>
      <point x="426" y="93"/>
      <point x="410" y="109"/>
      <point x="410" y="129" type="curve" smooth="yes"/>
      <point x="410" y="149"/>
      <point x="426" y="164"/>
      <point x="446" y="164" type="curve" smooth="yes"/>
      <point x="466" y="164"/>
      <point x="481" y="149"/>
      <point x="481" y="129" type="curve" smooth="yes"/>
      <point x="481" y="109"/>
      <point x="466" y="93"/>
    </contour>
    <contour>
      <point x="217" y="65" type="curve" smooth="yes"/>
      <point x="197" y="65"/>
      <point x="181" y="81"/>
      <point x="181" y="101" type="curve" smooth="yes"/>
      <point x="181" y="121"/>
      <point x="197" y="136"/>
      <point x="217" y="136" type="curve" smooth="yes"/>
      <point x="237" y="136"/>
      <point x="252" y="121"/>
      <point x="252" y="101" type="curve" smooth="yes"/>
      <point x="252" y="81"/>
      <point x="237" y="65"/>
    </contour>
  </outline>
</glyph>
<glyph name="V" format="2">
  <advance width="616"/>
  <unicode hex="0056"/>
  <unicode hex="0076"/>
  <anchor x="322" y="0" name="bottom"/>
  <anchor x="364" y="700" name="top"/>
  <outline>
    <contour>
      <point x="66" y="654" type="curve" smooth="yes"/>
      <point x="76" y="586"/>
      <point x="98" y="451"/>
      <point x="120" y="331" type="curve" smooth="yes"/>
      <point x="122" y="319"/>
      <point x="124" y="307"/>
      <point x="126" y="296" type="curve" smooth="yes"/>
      <point x="129" y="283"/>
      <point x="131" y="271"/>
      <point x="133" y="260" type="curve" smooth="yes"/>
      <point x="135" y="247"/>
      <point x="138" y="234"/>
      <point x="140" y="222" type="curve" smooth="yes"/>
      <point x="142" y="211"/>
      <point x="144" y="201"/>
      <point x="146" y="191" type="curve" smooth="yes"/>
      <point x="148" y="180"/>
      <point x="150" y="170"/>
      <point x="152" y="161" type="curve" smooth="yes"/>
      <point x="155" y="145"/>
      <point x="158" y="131"/>
      <point x="161" y="120" type="curve" smooth="yes"/>
      <point x="179" y="33"/>
      <point x="227" y="-2"/>
      <point x="301" y="-2" type="curve" smooth="yes"/>
      <point x="375" y="-2"/>
      <point x="409" y="27"/>
      <point x="436" y="99" type="curve" smooth="yes"/>
      <point x="466" y="178"/>
      <point x="494" y="257"/>
      <point x="521" y="336" type="curve"/>
      <point x="462" y="352"/>
      <point x="441" y="369"/>
      <point x="447" y="395" type="curve" smooth="yes"/>
      <point x="453" y="419"/>
      <point x="490" y="419"/>
      <point x="541" y="394" type="curve"/>
      <point x="548" y="411"/>
      <point x="554" y="430"/>
      <point x="559" y="448" type="curve"/>
      <point x="460" y="476"/>
      <point x="443" y="494"/>
      <point x="453" y="522" type="curve" smooth="yes"/>
      <point x="461" y="544"/>
      <point x="496" y="545"/>
      <point x="580" y="507" type="curve"/>
      <point x="584" y="516"/>
      <point x="587" y="525"/>
      <point x="589" y="534" type="curve" smooth="yes"/>
      <point x="611" y="623"/>
      <point x="594" y="690"/>
      <point x="511" y="690" type="curve" smooth="yes"/>
      <point x="460" y="690"/>
      <point x="427" y="659"/>
      <point x="412" y="593" type="curve" smooth="yes"/>
      <point x="380" y="455"/>
      <point x="364" y="311"/>
      <point x="332" y="175" type="curve" smooth="yes"/>
      <point x="324" y="139"/>
      <point x="315" y="123"/>
      <point x="293" y="123" type="curve" smooth="yes"/>
      <point x="271" y="123"/>
      <point x="258" y="142"/>
      <point x="247" y="192" type="curve" smooth="yes"/>
      <point x="208" y="365"/>
      <point x="182" y="508"/>
      <point x="147" y="661" type="curve" smooth="yes"/>
      <point x="140" y="694"/>
      <point x="127" y="712"/>
      <point x="104" y="712" type="curve" smooth="yes"/>
      <point x="72" y="712"/>
      <point x="61" y="690"/>
    </contour>
    <contour>
      <point x="268" y="530" type="curve" smooth="yes"/>
      <point x="282" y="530"/>
      <point x="294" y="542"/>
      <point x="294" y="556" type="curve" smooth="yes"/>
      <point x="294" y="570"/>
      <point x="282" y="582"/>
      <point x="268" y="582" type="curve" smooth="yes"/>
      <point x="254" y="582"/>
      <point x="242" y="570"/>
      <point x="242" y="556" type="curve" smooth="yes"/>
      <point x="242" y="542"/>
      <point x="254" y="530"/>
    </contour>
    <contour>
      <point x="563" y="647" type="curve" smooth="yes"/>
      <point x="557" y="649"/>
      <point x="550" y="651"/>
      <point x="544" y="653" type="curve" smooth="yes"/>
      <point x="522" y="661"/>
      <point x="509" y="648"/>
      <point x="509" y="626" type="curve" smooth="yes"/>
      <point x="509" y="610"/>
      <point x="515" y="599"/>
      <point x="528" y="596" type="curve" smooth="yes"/>
      <point x="534" y="595"/>
      <point x="541" y="593"/>
      <point x="547" y="592" type="curve" smooth="yes"/>
      <point x="570" y="587"/>
      <point x="584" y="594"/>
      <point x="584" y="617" type="curve" smooth="yes"/>
      <point x="584" y="634"/>
      <point x="578" y="643"/>
    </contour>
    <contour>
      <point x="219" y="419" type="curve" smooth="yes"/>
      <point x="180" y="426"/>
      <point x="142" y="432"/>
      <point x="103" y="437" type="curve" smooth="yes"/>
      <point x="58" y="443"/>
      <point x="34" y="442"/>
      <point x="29" y="416" type="curve" smooth="yes"/>
      <point x="24" y="390"/>
      <point x="45" y="382"/>
      <point x="99" y="373" type="curve" smooth="yes"/>
      <point x="136" y="367"/>
      <point x="174" y="361"/>
      <point x="211" y="358" type="curve" smooth="yes"/>
      <point x="264" y="353"/>
      <point x="280" y="354"/>
      <point x="284" y="377" type="curve" smooth="yes"/>
      <point x="288" y="404"/>
      <point x="273" y="409"/>
    </contour>
    <contour>
      <point x="216" y="583" type="curve" smooth="yes"/>
      <point x="168" y="579"/>
      <point x="121" y="574"/>
      <point x="73" y="568" type="curve" smooth="yes"/>
      <point x="16" y="561"/>
      <point x="-3" y="551"/>
      <point x="-1" y="530" type="curve" smooth="yes"/>
      <point x="1" y="505"/>
      <point x="21" y="501"/>
      <point x="80" y="505" type="curve" smooth="yes"/>
      <point x="127" y="508"/>
      <point x="175" y="512"/>
      <point x="211" y="515" type="curve" smooth="yes"/>
      <point x="285" y="522"/>
      <point x="305" y="532"/>
      <point x="301" y="560" type="curve" smooth="yes"/>
      <point x="298" y="583"/>
      <point x="284" y="589"/>
    </contour>
  </outline>
</glyph>
<glyph name="X" format="2">
  <advance width="576"/>
  <unicode hex="0058"/>
  <unicode hex="0078"/>
  <anchor x="289" y="-8" name="bottom"/>
  <anchor x="349" y="707" name="top"/>
  <outline>
    <contour>
      <point x="71" y="-27" type="curve" smooth="yes"/>
      <point x="108" y="-43"/>
      <point x="128" y="-27"/>
      <point x="155" y="27" type="curve" smooth="yes"/>
      <point x="186" y="88"/>
      <point x="213" y="155"/>
      <point x="244" y="216" type="curve" smooth="yes"/>
      <point x="260" y="246"/>
      <point x="272" y="254"/>
      <point x="291" y="254" type="curve" smooth="yes"/>
      <point x="309" y="254"/>
      <point x="320" y="244"/>
      <point x="326" y="215" type="curve" smooth="yes"/>
      <point x="337" y="164"/>
      <point x="342" y="112"/>
      <point x="353" y="61" type="curve" smooth="yes"/>
      <point x="371" y="-23"/>
      <point x="416" y="-60"/>
      <point x="486" y="-39" type="curve" smooth="yes"/>
      <point x="547" y="-21"/>
      <point x="566" y="48"/>
      <point x="522" y="126" type="curve" smooth="yes"/>
      <point x="496" y="172"/>
      <point x="470" y="207"/>
      <point x="447" y="248" type="curve" smooth="yes"/>
      <point x="427" y="284"/>
      <point x="421" y="303"/>
      <point x="421" y="321" type="curve" smooth="yes"/>
      <point x="421" y="338"/>
      <point x="422" y="357"/>
      <point x="439" y="404" type="curve" smooth="yes"/>
      <point x="465" y="474"/>
      <point x="498" y="537"/>
      <point x="524" y="607" type="curve" smooth="yes"/>
      <point x="538" y="643"/>
      <point x="532" y="672"/>
      <point x="504" y="682" type="curve" smooth="yes"/>
      <point x="476" y="692"/>
      <point x="456" y="682"/>
      <point x="442" y="647" type="curve" smooth="yes"/>
      <point x="413" y="575"/>
      <point x="392" y="502"/>
      <point x="362" y="437" type="curve" smooth="yes"/>
      <point x="347" y="404"/>
      <point x="329" y="393"/>
      <point x="304" y="393" type="curve" smooth="yes"/>
      <point x="280" y="393"/>
      <point x="265" y="406"/>
      <point x="249" y="449" type="curve" smooth="yes"/>
      <point x="247" y="455"/>
      <point x="244" y="462"/>
      <point x="242" y="468" type="curve" smooth="yes"/>
      <point x="239" y="476"/>
      <point x="236" y="483"/>
      <point x="234" y="491" type="curve" smooth="yes"/>
      <point x="232" y="497"/>
      <point x="230" y="503"/>
      <point x="228" y="509" type="curve" smooth="yes"/>
      <point x="225" y="517"/>
      <point x="223" y="524"/>
      <point x="220" y="532" type="curve" smooth="yes"/>
      <point x="217" y="540"/>
      <point x="215" y="548"/>
      <point x="212" y="556" type="curve" smooth="yes"/>
      <point x="210" y="563"/>
      <point x="207" y="570"/>
      <point x="205" y="577" type="curve" smooth="yes"/>
      <point x="197" y="603"/>
      <point x="188" y="629"/>
      <point x="179" y="654" type="curve" smooth="yes"/>
      <point x="163" y="700"/>
      <point x="142" y="725"/>
      <point x="102" y="712" type="curve" smooth="yes"/>
      <point x="63" y="700"/>
      <point x="55" y="668"/>
      <point x="77" y="615" type="curve" smooth="yes"/>
      <point x="107" y="543"/>
      <point x="141" y="485"/>
      <point x="168" y="424" type="curve" smooth="yes"/>
      <point x="192" y="370"/>
      <point x="197" y="347"/>
      <point x="197" y="324" type="curve" smooth="yes"/>
      <point x="197" y="302"/>
      <point x="191" y="283"/>
      <point x="174" y="253" type="curve" smooth="yes"/>
      <point x="139" y="191"/>
      <point x="101" y="136"/>
      <point x="67" y="73" type="curve" smooth="yes"/>
      <point x="36" y="16"/>
      <point x="40" y="-13"/>
    </contour>
    <contour>
      <point x="427" y="456" type="curve" smooth="yes"/>
      <point x="438" y="452"/>
      <point x="445" y="456"/>
      <point x="453" y="476" type="curve" smooth="yes"/>
      <point x="460" y="493"/>
      <point x="459" y="507"/>
      <point x="447" y="512" type="curve" smooth="yes"/>
      <point x="444" y="513"/>
      <point x="442" y="514"/>
      <point x="439" y="515" type="curve" smooth="yes"/>
      <point x="426" y="520"/>
      <point x="416" y="515"/>
      <point x="408" y="494" type="curve" smooth="yes"/>
      <point x="400" y="474"/>
      <point x="404" y="465"/>
      <point x="416" y="460" type="curve" smooth="yes"/>
      <point x="420" y="458"/>
      <point x="424" y="457"/>
    </contour>
    <contour>
      <point x="404" y="405" type="line" smooth="yes"/>
      <point x="401" y="399"/>
      <point x="415" y="407"/>
      <point x="418" y="412" type="curve" smooth="yes"/>
      <point x="421" y="418"/>
      <point x="417" y="434"/>
      <point x="414" y="428" type="curve" smooth="yes"/>
    </contour>
    <contour>
      <point x="319" y="512" type="curve" smooth="yes"/>
      <point x="347" y="512"/>
      <point x="371" y="536"/>
      <point x="371" y="565" type="curve" smooth="yes"/>
      <point x="371" y="595"/>
      <point x="347" y="619"/>
      <point x="319" y="619" type="curve" smooth="yes"/>
      <point x="289" y="619"/>
      <point x="264" y="595"/>
      <point x="264" y="565" type="curve" smooth="yes"/>
      <point x="264" y="536"/>
      <point x="289" y="512"/>
    </contour>
    <contour>
      <point x="210" y="142" type="curve" smooth="yes"/>
      <point x="258" y="126"/>
      <point x="277" y="126"/>
      <point x="284" y="148" type="curve" smooth="yes"/>
      <point x="291" y="170"/>
      <point x="277" y="183"/>
      <point x="233" y="200" type="curve" smooth="yes"/>
      <point x="187" y="218"/>
      <point x="146" y="233"/>
      <point x="102" y="247" type="curve" smooth="yes"/>
      <point x="48" y="265"/>
      <point x="29" y="264"/>
      <point x="22" y="244" type="curve" smooth="yes"/>
      <point x="16" y="225"/>
      <point x="26" y="211"/>
      <point x="81" y="189" type="curve" smooth="yes"/>
      <point x="122" y="173"/>
      <point x="164" y="157"/>
    </contour>
    <contour>
      <point x="453" y="13" type="curve" smooth="yes"/>
      <point x="431" y="13"/>
      <point x="413" y="31"/>
      <point x="413" y="52" type="curve" smooth="yes"/>
      <point x="413" y="73"/>
      <point x="431" y="91"/>
      <point x="453" y="91" type="curve" smooth="yes"/>
      <point x="474" y="91"/>
      <point x="491" y="73"/>
      <point x="491" y="52" type="curve" smooth="yes"/>
      <point x="491" y="31"/>
      <point x="474" y="13"/>
    </contour>
    <contour>
      <point x="412" y="136" type="curve" smooth="yes"/>
      <point x="393" y="136"/>
      <point x="376" y="153"/>
      <point x="376" y="171" type="curve" smooth="yes"/>
      <point x="376" y="190"/>
      <point x="393" y="206"/>
      <point x="412" y="206" type="curve" smooth="yes"/>
      <point x="431" y="206"/>
      <point x="446" y="190"/>
      <point x="446" y="171" type="curve" smooth="yes"/>
      <point x="446" y="153"/>
      <point x="431" y="136"/>
    </contour>
    <contour>
      <point x="180" y="41" type="curve" smooth="yes"/>
      <point x="230" y="28"/>
      <point x="252" y="27"/>
      <point x="258" y="47" type="curve" smooth="yes"/>
      <point x="265" y="69"/>
      <point x="256" y="80"/>
      <point x="202" y="100" type="curve" smooth="yes"/>
      <point x="161" y="115"/>
      <point x="121" y="127"/>
      <point x="80" y="138" type="curve" smooth="yes"/>
      <point x="22" y="154"/>
      <point x="2" y="154"/>
      <point x="-5" y="132" type="curve" smooth="yes"/>
      <point x="-12" y="111"/>
      <point x="5" y="100"/>
      <point x="49" y="83" type="curve" smooth="yes"/>
      <point x="91" y="67"/>
      <point x="134" y="53"/>
    </contour>
  </outline>
</glyph>
<glyph name="backslash" format="2">
  <advance width="402"/>
  <unicode hex="005C"/>
  <outline>
    <contour>
      <point x="360" y="-120" type="curve" smooth="yes"/>
      <point x="394" y="-106"/>
      <point x="403" y="-88"/>
      <point x="387" y="-41" type="curve" smooth="yes"/>
      <point x="295" y="239"/>
      <point x="198" y="524"/>
      <point x="100" y="800" type="curve" smooth="yes"/>
      <point x="86" y="840"/>
      <point x="61" y="851"/>
      <point x="36" y="842" type="curve" smooth="yes"/>
      <point x="8" y="832"/>
      <point x="-2" y="813"/>
      <point x="11" y="773" type="curve" smooth="yes"/>
      <point x="100" y="493"/>
      <point x="194" y="204"/>
      <point x="289" y="-76" type="curve" smooth="yes"/>
      <point x="304" y="-120"/>
      <point x="332" y="-131"/>
    </contour>
  </outline>
</glyph>
<glyph name="asciicircum" format="2">
  <advance width="522"/>
  <unicode hex="005E"/>
  <outline>
    <contour>
      <point x="80" y="439" type="curve" smooth="yes"/>
      <point x="66" y="409"/>
      <point x="68" y="381"/>
      <point x="88" y="371" type="curve" smooth="yes"/>
      <point x="110" y="360"/>
      <point x="133" y="366"/>
      <point x="152" y="399" type="curve" smooth="yes"/>
      <point x="184" y="452"/>
      <point x="218" y="533"/>
      <point x="253" y="594" type="curve" smooth="yes"/>
      <point x="263" y="612"/>
      <point x="284" y="611"/>
      <point x="293" y="590" type="curve" smooth="yes"/>
      <point x="313" y="541"/>
      <point x="324" y="505"/>
      <point x="344" y="456" type="curve" smooth="yes"/>
      <point x="360" y="416"/>
      <point x="391" y="398"/>
      <point x="427" y="413" type="curve" smooth="yes"/>
      <point x="463" y="427"/>
      <point x="477" y="459"/>
      <point x="456" y="499" type="curve" smooth="yes"/>
      <point x="427" y="554"/>
      <point x="387" y="623"/>
      <point x="361" y="662" type="curve" smooth="yes"/>
      <point x="338" y="697"/>
      <point x="318" y="709"/>
      <point x="279" y="709" type="curve" smooth="yes"/>
      <point x="245" y="709"/>
      <point x="216" y="693"/>
      <point x="192" y="651" type="curve" smooth="yes"/>
      <point x="159" y="594"/>
      <point x="112" y="504"/>
    </contour>
  </outline>
</glyph>
<glyph name="underscore" format="2">
  <advance width="520"/>
  <unicode hex="005F"/>
  <outline>
    <contour>
      <point x="90" y="-46" type="curve" smooth="yes"/>
      <point x="56" y="-46"/>
      <point x="33" y="-55"/>
      <point x="33" y="-88" type="curve" smooth="yes"/>
      <point x="33" y="-119"/>
      <point x="51" y="-130"/>
      <point x="92" y="-132" type="curve" smooth="yes"/>
      <point x="190" y="-138"/>
      <point x="309" y="-141"/>
      <point x="409" y="-141" type="curve" smooth="yes"/>
      <point x="448" y="-142"/>
      <point x="481" y="-135"/>
      <point x="481" y="-100" type="curve" smooth="yes"/>
      <point x="481" y="-71"/>
      <point x="459" y="-55"/>
      <point x="408" y="-53" type="curve" smooth="yes"/>
      <point x="326" y="-49"/>
      <point x="187" y="-46"/>
    </contour>
  </outline>
</glyph>
<glyph name="bar" format="2">
  <advance width="225"/>
  <unicode hex="007C"/>
  <outline>
    <contour>
      <point x="58" y="729" type="curve" smooth="yes"/>
      <point x="58" y="468"/>
      <point x="62" y="195"/>
      <point x="68" y="-68" type="curve" smooth="yes"/>
      <point x="69" y="-110"/>
      <point x="84" y="-132"/>
      <point x="111" y="-132" type="curve" smooth="yes"/>
      <point x="139" y="-132"/>
      <point x="150" y="-109"/>
      <point x="152" y="-63" type="curve" smooth="yes"/>
      <point x="162" y="197"/>
      <point x="173" y="467"/>
      <point x="181" y="732" type="curve" smooth="yes"/>
      <point x="182" y="767"/>
      <point x="164" y="794"/>
      <point x="122" y="794" type="curve" smooth="yes"/>
      <point x="77" y="794"/>
      <point x="58" y="770"/>
    </contour>
  </outline>
</glyph>
<glyph name="asciitilde" format="2">
  <advance width="472"/>
  <unicode hex="007E"/>
  <outline>
    <contour>
      <point x="25" y="240" type="curve" smooth="yes"/>
      <point x="25" y="208"/>
      <point x="43" y="187"/>
      <point x="67" y="187" type="curve" smooth="yes"/>
      <point x="97" y="187"/>
      <point x="116" y="205"/>
      <point x="117" y="236" type="curve" smooth="yes"/>
      <point x="120" y="313"/>
      <point x="135" y="336"/>
      <point x="164" y="336" type="curve" smooth="yes"/>
      <point x="219" y="336"/>
      <point x="229" y="233"/>
      <point x="320" y="233" type="curve" smooth="yes"/>
      <point x="402" y="233"/>
      <point x="443" y="308"/>
      <point x="446" y="430" type="curve" smooth="yes"/>
      <point x="447" y="468"/>
      <point x="432" y="487"/>
      <point x="408" y="487" type="curve" smooth="yes"/>
      <point x="378" y="487"/>
      <point x="361" y="469"/>
      <point x="360" y="437" type="curve" smooth="yes"/>
      <point x="358" y="371"/>
      <point x="348" y="343"/>
      <point x="319" y="343" type="curve" smooth="yes"/>
      <point x="272" y="343"/>
      <point x="263" y="442"/>
      <point x="161" y="442" type="curve" smooth="yes"/>
      <point x="77" y="442"/>
      <point x="26" y="371"/>
    </contour>
  </outline>
</glyph>
<glyph name="brokenbar" format="2">
  <advance width="225"/>
  <unicode hex="00A6"/>
  <outline>
    <contour>
      <point x="70" y="734" type="curve" smooth="yes"/>
      <point x="65" y="636"/>
      <point x="60" y="538"/>
      <point x="58" y="454" type="curve" smooth="yes"/>
      <point x="56" y="408"/>
      <point x="76" y="379"/>
      <point x="117" y="379" type="curve" smooth="yes"/>
      <point x="157" y="379"/>
      <point x="174" y="404"/>
      <point x="174" y="444" type="curve" smooth="yes"/>
      <point x="173" y="537"/>
      <point x="169" y="635"/>
      <point x="164" y="734" type="curve" smooth="yes"/>
      <point x="162" y="778"/>
      <point x="148" y="800"/>
      <point x="116" y="800" type="curve" smooth="yes"/>
      <point x="88" y="800"/>
      <point x="72" y="778"/>
    </contour>
    <contour>
      <point x="62" y="210" type="curve" smooth="yes"/>
      <point x="63" y="107"/>
      <point x="67" y="3"/>
      <point x="74" y="-102" type="curve" smooth="yes"/>
      <point x="77" y="-146"/>
      <point x="89" y="-165"/>
      <point x="120" y="-165" type="curve" smooth="yes"/>
      <point x="150" y="-165"/>
      <point x="165" y="-147"/>
      <point x="166" y="-102" type="curve" smooth="yes"/>
      <point x="169" y="4"/>
      <point x="171" y="108"/>
      <point x="169" y="212" type="curve" smooth="yes"/>
      <point x="168" y="249"/>
      <point x="151" y="272"/>
      <point x="114" y="272" type="curve" smooth="yes"/>
      <point x="78" y="272"/>
      <point x="62" y="248"/>
    </contour>
  </outline>
</glyph>
<glyph name="guillemetleft" format="2">
  <advance width="493"/>
  <unicode hex="00AB"/>
  <outline>
    <contour>
      <point x="204" y="23" type="curve" smooth="yes"/>
      <point x="228" y="-16"/>
      <point x="294" y="9"/>
      <point x="271" y="58" type="curve" smooth="yes"/>
      <point x="249" y="106"/>
      <point x="194" y="219"/>
      <point x="173" y="264" type="curve" smooth="yes"/>
      <point x="164" y="283"/>
      <point x="160" y="306"/>
      <point x="169" y="324" type="curve" smooth="yes"/>
      <point x="191" y="371"/>
      <point x="234" y="448"/>
      <point x="258" y="497" type="curve" smooth="yes"/>
      <point x="289" y="560"/>
      <point x="192" y="598"/>
      <point x="166" y="538" type="curve" smooth="yes"/>
      <point x="144" y="490"/>
      <point x="109" y="407"/>
      <point x="84" y="344" type="curve" smooth="yes"/>
      <point x="71" y="311"/>
      <point x="70" y="273"/>
      <point x="84" y="245" type="curve" smooth="yes"/>
      <point x="112" y="190"/>
      <point x="172" y="76"/>
    </contour>
    <contour>
      <point x="361" y="51" type="curve" smooth="yes"/>
      <point x="390" y="-3"/>
      <point x="479" y="38"/>
      <point x="444" y="102" type="curve" smooth="yes"/>
      <point x="413" y="158"/>
      <point x="376" y="222"/>
      <point x="344" y="274" type="curve" smooth="yes"/>
      <point x="330" y="296"/>
      <point x="332" y="313"/>
      <point x="346" y="334" type="curve" smooth="yes"/>
      <point x="369" y="369"/>
      <point x="399" y="414"/>
      <point x="420" y="447" type="curve" smooth="yes"/>
      <point x="451" y="496"/>
      <point x="393" y="537"/>
      <point x="360" y="493" type="curve" smooth="yes"/>
      <point x="330" y="453"/>
      <point x="285" y="391"/>
      <point x="260" y="353" type="curve" smooth="yes"/>
      <point x="245" y="330"/>
      <point x="241" y="303"/>
      <point x="255" y="271" type="curve" smooth="yes"/>
      <point x="284" y="206"/>
      <point x="331" y="107"/>
    </contour>
  </outline>
</glyph>
<glyph name="periodcentered" format="2">
  <advance width="276"/>
  <unicode hex="00B7"/>
  <outline>
    <contour>
      <point x="135" y="262" type="curve" smooth="yes"/>
      <point x="190" y="262"/>
      <point x="236" y="300"/>
      <point x="236" y="346" type="curve" smooth="yes"/>
      <point x="236" y="394"/>
      <point x="199" y="434"/>
      <point x="140" y="434" type="curve" smooth="yes"/>
      <point x="86" y="434"/>
      <point x="40" y="393"/>
      <point x="40" y="344" type="curve" smooth="yes"/>
      <point x="40" y="294"/>
      <point x="78" y="262"/>
    </contour>
  </outline>
</glyph>
<glyph name="guillemetright" format="2">
  <advance width="493"/>
  <unicode hex="00BB"/>
  <outline>
    <contour>
      <point x="331" y="533" type="curve" smooth="yes"/>
      <point x="304" y="580"/>
      <point x="236" y="549"/>
      <point x="255" y="506" type="curve" smooth="yes"/>
      <point x="286" y="435"/>
      <point x="327" y="346"/>
      <point x="349" y="297" type="curve" smooth="yes"/>
      <point x="357" y="279"/>
      <point x="359" y="262"/>
      <point x="349" y="245" type="curve" smooth="yes"/>
      <point x="321" y="196"/>
      <point x="285" y="130"/>
      <point x="258" y="79" type="curve" smooth="yes"/>
      <point x="228" y="22"/>
      <point x="306" y="-14"/>
      <point x="337" y="35" type="curve" smooth="yes"/>
      <point x="369" y="86"/>
      <point x="405" y="151"/>
      <point x="435" y="207" type="curve" smooth="yes"/>
      <point x="451" y="238"/>
      <point x="455" y="286"/>
      <point x="438" y="324" type="curve" smooth="yes"/>
      <point x="412" y="381"/>
      <point x="368" y="467"/>
    </contour>
    <contour>
      <point x="156" y="499" type="curve" smooth="yes"/>
      <point x="122" y="551"/>
      <point x="41" y="498"/>
      <point x="72" y="451" type="curve" smooth="yes"/>
      <point x="106" y="399"/>
      <point x="143" y="348"/>
      <point x="178" y="301" type="curve" smooth="yes"/>
      <point x="192" y="283"/>
      <point x="187" y="268"/>
      <point x="173" y="249" type="curve" smooth="yes"/>
      <point x="131" y="192"/>
      <point x="89" y="132"/>
      <point x="58" y="85" type="curve" smooth="yes"/>
      <point x="24" y="34"/>
      <point x="76" y="-3"/>
      <point x="113" y="39" type="curve" smooth="yes"/>
      <point x="152" y="83"/>
      <point x="221" y="168"/>
      <point x="263" y="223" type="curve" smooth="yes"/>
      <point x="282" y="247"/>
      <point x="285" y="279"/>
      <point x="264" y="317" type="curve" smooth="yes"/>
      <point x="228" y="382"/>
      <point x="191" y="446"/>
    </contour>
  </outline>
</glyph>
<glyph name="endash" format="2">
  <advance width="381"/>
  <unicode hex="2013"/>
  <outline>
    <contour>
      <point x="111" y="369" type="curve" smooth="yes"/>
      <point x="65" y="367"/>
      <point x="44" y="351"/>
      <point x="44" y="322" type="curve" smooth="yes"/>
      <point x="44" y="287"/>
      <point x="61" y="269"/>
      <point x="101" y="269" type="curve" smooth="yes"/>
      <point x="155" y="269"/>
      <point x="233" y="273"/>
      <point x="290" y="279" type="curve" smooth="yes"/>
      <point x="323" y="283"/>
      <point x="339" y="294"/>
      <point x="339" y="321" type="curve" smooth="yes"/>
      <point x="339" y="353"/>
      <point x="321" y="367"/>
      <point x="291" y="369" type="curve" smooth="yes"/>
      <point x="245" y="373"/>
      <point x="163" y="372"/>
    </contour>
  </outline>
</glyph>
<glyph name="quoteright" format="2">
  <advance width="260"/>
  <unicode hex="2019"/>
  <outline>
    <contour>
      <point x="53" y="413" type="curve" smooth="yes"/>
      <point x="7" y="385"/>
      <point x="45" y="316"/>
      <point x="93" y="344" type="curve" smooth="yes"/>
      <point x="175" y="392"/>
      <point x="226" y="457"/>
      <point x="226" y="581" type="curve" smooth="yes"/>
      <point x="226" y="658"/>
      <point x="194" y="720"/>
      <point x="123" y="720" type="curve" smooth="yes"/>
      <point x="71" y="720"/>
      <point x="37" y="690"/>
      <point x="37" y="637" type="curve" smooth="yes"/>
      <point x="37" y="547"/>
      <point x="126" y="576"/>
      <point x="126" y="511" type="curve" smooth="yes"/>
      <point x="126" y="474"/>
      <point x="100" y="441"/>
    </contour>
    <contour>
      <point x="119" y="618" type="curve" smooth="yes"/>
      <point x="119" y="618"/>
      <point x="119" y="618"/>
      <point x="119" y="618" type="curve" smooth="yes"/>
      <point x="119" y="618"/>
      <point x="119" y="618"/>
      <point x="119" y="618" type="curve" smooth="yes"/>
      <point x="119" y="618"/>
      <point x="119" y="618"/>
      <point x="119" y="618" type="curve" smooth="yes"/>
      <point x="119" y="618"/>
      <point x="119" y="618"/>
    </contour>
    <contour>
      <point x="160" y="467" type="curve" smooth="yes"/>
      <point x="150" y="473"/>
      <point x="141" y="471"/>
      <point x="129" y="450" type="curve" smooth="yes"/>
      <point x="119" y="432"/>
      <point x="121" y="420"/>
      <point x="126" y="416" type="curve" smooth="yes"/>
      <point x="130" y="413"/>
      <point x="130" y="413"/>
      <point x="136" y="410" type="curve" smooth="yes"/>
      <point x="146" y="405"/>
      <point x="157" y="404"/>
      <point x="168" y="424" type="curve" smooth="yes"/>
      <point x="179" y="445"/>
      <point x="177" y="453"/>
      <point x="169" y="460" type="curve" smooth="yes"/>
      <point x="165" y="463"/>
      <point x="164" y="464"/>
    </contour>
  </outline>
</glyph>
<glyph name="quotedblleft" format="2">
  <advance width="509"/>
  <unicode hex="201C"/>
  <outline>
    <contour>
      <point x="230" y="667" type="curve" smooth="yes"/>
      <point x="274" y="698"/>
      <point x="232" y="754"/>
      <point x="189" y="729" type="curve" smooth="yes"/>
      <point x="113" y="685"/>
      <point x="47" y="588"/>
      <point x="47" y="448" type="curve" smooth="yes"/>
      <point x="47" y="387"/>
      <point x="75" y="335"/>
      <point x="153" y="335" type="curve" smooth="yes"/>
      <point x="207" y="335"/>
      <point x="238" y="367"/>
      <point x="238" y="411" type="curve" smooth="yes"/>
      <point x="238" y="503"/>
      <point x="145" y="471"/>
      <point x="145" y="525" type="curve" smooth="yes"/>
      <point x="145" y="577"/>
      <point x="178" y="631"/>
    </contour>
    <contour>
      <point x="158" y="412" type="curve" smooth="yes"/>
      <point x="158" y="412"/>
      <point x="158" y="412"/>
      <point x="158" y="412" type="curve" smooth="yes"/>
      <point x="158" y="412"/>
      <point x="158" y="412"/>
      <point x="158" y="412" type="curve" smooth="yes"/>
      <point x="158" y="412"/>
      <point x="158" y="412"/>
      <point x="158" y="412" type="curve" smooth="yes"/>
      <point x="158" y="412"/>
      <point x="158" y="412"/>
    </contour>
    <contour>
      <point x="161" y="568" type="curve" smooth="yes"/>
      <point x="212" y="546"/>
      <point x="236" y="546"/>
      <point x="244" y="566" type="curve" smooth="yes"/>
      <point x="252" y="587"/>
      <point x="241" y="602"/>
      <point x="188" y="627" type="curve" smooth="yes"/>
      <point x="156" y="643"/>
      <point x="120" y="657"/>
      <point x="103" y="664" type="curve" smooth="yes"/>
      <point x="51" y="684"/>
      <point x="31" y="685"/>
      <point x="22" y="666" type="curve" smooth="yes"/>
      <point x="13" y="646"/>
      <point x="21" y="627"/>
      <point x="73" y="605" type="curve" smooth="yes"/>
      <point x="94" y="596"/>
      <point x="123" y="584"/>
    </contour>
    <contour>
      <point x="453" y="631" type="curve" smooth="yes"/>
      <point x="508" y="652"/>
      <point x="478" y="721"/>
      <point x="425" y="705" type="curve" smooth="yes"/>
      <point x="338" y="678"/>
      <point x="278" y="606"/>
      <point x="278" y="465" type="curve" smooth="yes"/>
      <point x="278" y="386"/>
      <point x="311" y="342"/>
      <point x="387" y="342" type="curve" smooth="yes"/>
      <point x="443" y="342"/>
      <point x="484" y="376"/>
      <point x="484" y="436" type="curve" smooth="yes"/>
      <point x="484" y="539"/>
      <point x="386" y="511"/>
      <point x="386" y="563" type="curve" smooth="yes"/>
      <point x="386" y="591"/>
      <point x="411" y="616"/>
    </contour>
    <contour>
      <point x="383" y="478" type="curve" smooth="yes"/>
      <point x="406" y="478"/>
      <point x="425" y="459"/>
      <point x="425" y="436" type="curve" smooth="yes"/>
      <point x="425" y="413"/>
      <point x="406" y="394"/>
      <point x="383" y="394" type="curve" smooth="yes"/>
      <point x="360" y="394"/>
      <point x="341" y="413"/>
      <point x="341" y="436" type="curve" smooth="yes"/>
      <point x="341" y="459"/>
      <point x="360" y="478"/>
    </contour>
    <contour>
      <point x="343" y="570" type="curve" smooth="yes"/>
      <point x="353" y="564"/>
      <point x="362" y="566"/>
      <point x="374" y="587" type="curve" smooth="yes"/>
      <point x="384" y="605"/>
      <point x="382" y="617"/>
      <point x="377" y="621" type="curve" smooth="yes"/>
      <point x="373" y="624"/>
      <point x="373" y="624"/>
      <point x="367" y="627" type="curve" smooth="yes"/>
      <point x="357" y="632"/>
      <point x="346" y="633"/>
      <point x="335" y="613" type="curve" smooth="yes"/>
      <point x="324" y="592"/>
      <point x="326" y="584"/>
      <point x="334" y="577" type="curve" smooth="yes"/>
      <point x="338" y="574"/>
      <point x="339" y="573"/>
    </contour>
  </outline>
</glyph>
<glyph name="quotedblright" format="2">
  <advance width="509"/>
  <unicode hex="201D"/>
  <outline>
    <contour>
      <point x="280" y="361" type="curve" smooth="yes"/>
      <point x="236" y="335"/>
      <point x="269" y="274"/>
      <point x="318" y="298" type="curve" smooth="yes"/>
      <point x="409" y="343"/>
      <point x="475" y="425"/>
      <point x="475" y="578" type="curve" smooth="yes"/>
      <point x="475" y="672"/>
      <point x="442" y="716"/>
      <point x="367" y="716" type="curve" smooth="yes"/>
      <point x="306" y="716"/>
      <point x="269" y="684"/>
      <point x="269" y="624" type="curve" smooth="yes"/>
      <point x="269" y="519"/>
      <point x="372" y="547"/>
      <point x="372" y="493" type="curve" smooth="yes"/>
      <point x="372" y="441"/>
      <point x="336" y="394"/>
    </contour>
    <contour>
      <point x="370" y="583" type="curve" smooth="yes"/>
      <point x="347" y="583"/>
      <point x="328" y="602"/>
      <point x="328" y="625" type="curve" smooth="yes"/>
      <point x="328" y="648"/>
      <point x="347" y="667"/>
      <point x="370" y="667" type="curve" smooth="yes"/>
      <point x="393" y="667"/>
      <point x="412" y="648"/>
      <point x="412" y="625" type="curve" smooth="yes"/>
      <point x="412" y="602"/>
      <point x="393" y="583"/>
    </contour>
    <contour>
      <point x="414" y="488" type="curve" smooth="yes"/>
      <point x="404" y="494"/>
      <point x="395" y="492"/>
      <point x="383" y="471" type="curve" smooth="yes"/>
      <point x="373" y="453"/>
      <point x="375" y="441"/>
      <point x="380" y="437" type="curve" smooth="yes"/>
      <point x="384" y="434"/>
      <point x="384" y="434"/>
      <point x="390" y="431" type="curve" smooth="yes"/>
      <point x="400" y="426"/>
      <point x="411" y="425"/>
      <point x="422" y="445" type="curve" smooth="yes"/>
      <point x="433" y="466"/>
      <point x="431" y="474"/>
      <point x="423" y="481" type="curve" smooth="yes"/>
      <point x="419" y="484"/>
      <point x="418" y="485"/>
    </contour>
    <contour>
      <point x="49" y="395" type="curve" smooth="yes"/>
      <point x="5" y="364"/>
      <point x="47" y="308"/>
      <point x="90" y="333" type="curve" smooth="yes"/>
      <point x="164" y="376"/>
      <point x="228" y="474"/>
      <point x="228" y="614" type="curve" smooth="yes"/>
      <point x="228" y="675"/>
      <point x="201" y="727"/>
      <point x="126" y="727" type="curve" smooth="yes"/>
      <point x="72" y="727"/>
      <point x="41" y="693"/>
      <point x="41" y="649" type="curve" smooth="yes"/>
      <point x="41" y="560"/>
      <point x="134" y="596"/>
      <point x="134" y="538" type="curve" smooth="yes"/>
      <point x="134" y="486"/>
      <point x="101" y="431"/>
    </contour>
    <contour>
      <point x="121" y="650" type="curve" smooth="yes"/>
      <point x="121" y="650"/>
      <point x="121" y="650"/>
      <point x="121" y="650" type="curve" smooth="yes"/>
      <point x="121" y="650"/>
      <point x="121" y="650"/>
      <point x="121" y="650" type="curve" smooth="yes"/>
      <point x="121" y="650"/>
      <point x="121" y="650"/>
      <point x="121" y="650" type="curve" smooth="yes"/>
      <point x="121" y="650"/>
      <point x="121" y="650"/>
    </contour>
    <contour>
      <point x="119" y="513" type="curve" smooth="yes"/>
      <point x="66" y="531"/>
      <point x="42" y="529"/>
      <point x="36" y="508" type="curve" smooth="yes"/>
      <point x="30" y="486"/>
      <point x="42" y="472"/>
      <point x="97" y="452" type="curve" smooth="yes"/>
      <point x="130" y="439"/>
      <point x="168" y="428"/>
      <point x="185" y="423" type="curve" smooth="yes"/>
      <point x="239" y="407"/>
      <point x="260" y="408"/>
      <point x="266" y="429" type="curve" smooth="yes"/>
      <point x="272" y="450"/>
      <point x="264" y="467"/>
      <point x="210" y="484" type="curve" smooth="yes"/>
      <point x="188" y="491"/>
      <point x="158" y="501"/>
    </contour>
  </outline>
</glyph>
<glyph name="bullet" format="2">
  <advance width="352"/>
  <unicode hex="2022"/>
  <outline>
    <contour>
      <point x="167" y="237" type="curve" smooth="yes"/>
      <point x="273" y="237"/>
      <point x="322" y="278"/>
      <point x="322" y="365" type="curve" smooth="yes"/>
      <point x="322" y="452"/>
      <point x="272" y="493"/>
      <point x="188" y="494" type="curve" smooth="yes"/>
      <point x="76" y="495"/>
      <point x="30" y="438"/>
      <point x="30" y="360" type="curve" smooth="yes"/>
      <point x="30" y="269"/>
      <point x="86" y="237"/>
    </contour>
    <contour>
      <point x="214" y="320" type="curve" smooth="yes"/>
      <point x="214" y="320"/>
      <point x="214" y="320"/>
      <point x="214" y="320" type="curve" smooth="yes"/>
      <point x="214" y="320"/>
      <point x="214" y="320"/>
      <point x="214" y="320" type="curve" smooth="yes"/>
      <point x="214" y="320"/>
      <point x="214" y="320"/>
      <point x="214" y="320" type="curve" smooth="yes"/>
      <point x="214" y="320"/>
      <point x="214" y="320"/>
    </contour>
  </outline>
</glyph>
<glyph name="ellipsis" format="2">
  <advance width="760"/>
  <unicode hex="2026"/>
  <outline>
    <contour>
      <point x="610" y="-27" type="curve" smooth="yes"/>
      <point x="674" y="-27"/>
      <point x="711" y="7"/>
      <point x="711" y="76" type="curve" smooth="yes"/>
      <point x="711" y="141"/>
      <point x="678" y="186"/>
      <point x="617" y="186" type="curve" smooth="yes"/>
      <point x="559" y="186"/>
      <point x="515" y="141"/>
      <point x="515" y="76" type="curve" smooth="yes"/>
      <point x="515" y="17"/>
      <point x="553" y="-27"/>
    </contour>
    <contour>
      <point x="624" y="26" type="curve" smooth="yes"/>
      <point x="601" y="26"/>
      <point x="583" y="44"/>
      <point x="583" y="67" type="curve" smooth="yes"/>
      <point x="583" y="89"/>
      <point x="601" y="108"/>
      <point x="624" y="108" type="curve" smooth="yes"/>
      <point x="646" y="108"/>
      <point x="665" y="89"/>
      <point x="665" y="67" type="curve" smooth="yes"/>
      <point x="665" y="44"/>
      <point x="646" y="26"/>
    </contour>
    <contour>
      <point x="379" y="-18" type="curve" smooth="yes"/>
      <point x="427" y="-18"/>
      <point x="455" y="10"/>
      <point x="455" y="68" type="curve" smooth="yes"/>
      <point x="455" y="121"/>
      <point x="430" y="158"/>
      <point x="383" y="158" type="curve" smooth="yes"/>
      <point x="338" y="158"/>
      <point x="304" y="120"/>
      <point x="304" y="65" type="curve" smooth="yes"/>
      <point x="304" y="17"/>
      <point x="334" y="-18"/>
    </contour>
    <contour>
      <point x="383" y="76" type="curve" smooth="yes"/>
      <point x="383" y="76"/>
      <point x="383" y="76"/>
      <point x="383" y="76" type="curve" smooth="yes"/>
      <point x="383" y="76"/>
      <point x="383" y="76"/>
      <point x="383" y="76" type="curve" smooth="yes"/>
      <point x="383" y="76"/>
      <point x="383" y="76"/>
      <point x="383" y="76" type="curve" smooth="yes"/>
      <point x="383" y="76"/>
      <point x="383" y="76"/>
    </contour>
    <component base="period" yOffset="12"/>
  </outline>
</glyph>
<glyph name="guilsinglright" format="2">
  <advance width="331"/>
  <unicode hex="203A"/>
  <outline>
    <contour>
      <point x="113" y="528" type="curve" smooth="yes"/>
      <point x="73" y="575"/>
      <point x="17" y="526"/>
      <point x="47" y="485" type="curve" smooth="yes"/>
      <point x="90" y="427"/>
      <point x="145" y="355"/>
      <point x="188" y="297" type="curve" smooth="yes"/>
      <point x="203" y="276"/>
      <point x="200" y="246"/>
      <point x="187" y="230" type="curve" smooth="yes"/>
      <point x="152" y="187"/>
      <point x="106" y="133"/>
      <point x="66" y="91" type="curve" smooth="yes"/>
      <point x="10" y="32"/>
      <point x="88" y="-44"/>
      <point x="142" y="23" type="curve" smooth="yes"/>
      <point x="188" y="80"/>
      <point x="237" y="144"/>
      <point x="287" y="213" type="curve" smooth="yes"/>
      <point x="311" y="247"/>
      <point x="309" y="284"/>
      <point x="276" y="326" type="curve" smooth="yes"/>
      <point x="226" y="390"/>
      <point x="166" y="465"/>
    </contour>
  </outline>
</glyph>
<glyph name="upArrow" format="2">
  <advance width="680"/>
  <unicode hex="2191"/>
  <outline>
    <contour>
      <point x="317" y="-12" type="curve" smooth="yes"/>
      <point x="365" y="-12"/>
      <point x="397" y="14"/>
      <point x="397" y="60" type="curve" smooth="yes"/>
      <point x="398" y="203"/>
      <point x="374" y="375"/>
      <point x="374" y="510" type="curve" smooth="yes"/>
      <point x="374" y="533"/>
      <point x="394" y="540"/>
      <point x="406" y="526" type="curve" smooth="yes"/>
      <point x="464" y="460"/>
      <point x="500" y="401"/>
      <point x="553" y="342" type="curve" smooth="yes"/>
      <point x="588" y="302"/>
      <point x="627" y="306"/>
      <point x="649" y="330" type="curve" smooth="yes"/>
      <point x="672" y="354"/>
      <point x="671" y="394"/>
      <point x="636" y="435" type="curve" smooth="yes"/>
      <point x="575" y="507"/>
      <point x="495" y="589"/>
      <point x="412" y="661" type="curve" smooth="yes"/>
      <point x="363" y="704"/>
      <point x="295" y="695"/>
      <point x="254" y="659" type="curve" smooth="yes"/>
      <point x="180" y="595"/>
      <point x="101" y="517"/>
      <point x="37" y="445" type="curve" smooth="yes"/>
      <point x="18" y="424"/>
      <point x="8" y="396"/>
      <point x="28" y="373" type="curve" smooth="yes"/>
      <point x="46" y="353"/>
      <point x="76" y="349"/>
      <point x="104" y="374" type="curve" smooth="yes"/>
      <point x="150" y="415"/>
      <point x="212" y="497"/>
      <point x="253" y="535" type="curve" smooth="yes"/>
      <point x="274" y="555"/>
      <point x="289" y="543"/>
      <point x="289" y="525" type="curve" smooth="yes"/>
      <point x="287" y="399"/>
      <point x="255" y="219"/>
      <point x="248" y="63" type="curve" smooth="yes"/>
      <point x="246" y="17"/>
      <point x="274" y="-12"/>
    </contour>
  </outline>
</glyph>
<glyph name="lastQuarterMoon" format="2">
  <advance width="525"/>
  <unicode hex="263E"/>
  <outline>
    <contour>
      <point x="52" y="334" type="curve" smooth="yes"/>
      <point x="52" y="125"/>
      <point x="233" y="-30"/>
      <point x="436" y="-30" type="curve" smooth="yes"/>
      <point x="470" y="-30"/>
      <point x="479" y="8"/>
      <point x="440" y="28" type="curve" smooth="yes"/>
      <point x="296" y="104"/>
      <point x="225" y="189"/>
      <point x="225" y="333" type="curve" smooth="yes"/>
      <point x="225" y="483"/>
      <point x="285" y="594"/>
      <point x="460" y="660" type="curve" smooth="yes"/>
      <point x="495" y="673"/>
      <point x="487" y="711"/>
      <point x="453" y="711" type="curve" smooth="yes"/>
      <point x="236" y="711"/>
      <point x="52" y="559"/>
    </contour>
  </outline>
</glyph>
<glyph name="spiral" format="2">
  <advance width="800"/>
  <unicode hex="AA5C"/>
  <outline>
    <contour>
      <point x="128" y="132" type="curve" smooth="yes"/>
      <point x="180" y="118"/>
      <point x="253" y="109"/>
      <point x="334" y="109" type="curve" smooth="yes"/>
      <point x="489" y="109"/>
      <point x="667" y="196"/>
      <point x="667" y="384" type="curve" smooth="yes"/>
      <point x="667" y="541"/>
      <point x="539" y="654"/>
      <point x="383" y="654" type="curve" smooth="yes"/>
      <point x="237" y="654"/>
      <point x="126" y="592"/>
      <point x="126" y="453" type="curve" smooth="yes"/>
      <point x="126" y="356"/>
      <point x="162" y="260"/>
      <point x="294" y="260" type="curve" smooth="yes"/>
      <point x="405" y="260"/>
      <point x="490" y="324"/>
      <point x="490" y="393" type="curve" smooth="yes"/>
      <point x="490" y="445"/>
      <point x="462" y="501"/>
      <point x="386" y="501" type="curve" smooth="yes"/>
      <point x="336" y="501"/>
      <point x="296" y="467"/>
      <point x="296" y="434" type="curve" smooth="yes"/>
      <point x="296" y="407"/>
      <point x="319" y="392"/>
      <point x="339" y="392" type="curve" smooth="yes"/>
      <point x="372" y="392"/>
      <point x="366" y="427"/>
      <point x="397" y="427" type="curve" smooth="yes"/>
      <point x="416" y="427"/>
      <point x="430" y="415"/>
      <point x="430" y="391" type="curve" smooth="yes"/>
      <point x="430" y="349"/>
      <point x="390" y="323"/>
      <point x="344" y="323" type="curve" smooth="yes"/>
      <point x="272" y="322"/>
      <point x="214" y="361"/>
      <point x="214" y="439" type="curve" smooth="yes"/>
      <point x="214" y="523"/>
      <point x="276" y="581"/>
      <point x="377" y="581" type="curve" smooth="yes"/>
      <point x="505" y="581"/>
      <point x="571" y="489"/>
      <point x="571" y="389" type="curve" smooth="yes"/>
      <point x="571" y="264"/>
      <point x="450" y="175"/>
      <point x="296" y="175" type="curve" smooth="yes"/>
      <point x="115" y="175"/>
      <point x="35" y="296"/>
      <point x="35" y="452" type="curve" smooth="yes"/>
      <point x="35" y="649"/>
      <point x="182" y="745"/>
      <point x="376" y="745" type="curve" smooth="yes"/>
      <point x="588" y="745"/>
      <point x="760" y="606"/>
      <point x="760" y="359" type="curve" smooth="yes"/>
      <point x="760" y="100"/>
      <point x="499" y="9"/>
      <point x="363" y="9" type="curve" smooth="yes"/>
      <point x="238" y="9"/>
      <point x="149" y="31"/>
      <point x="100" y="56" type="curve" smooth="yes"/>
      <point x="49" y="82"/>
      <point x="77" y="146"/>
    </contour>
  </outline>
</glyph>
<glyph name="border_2" format="2">
  <advance width="615"/>
  <unicode hex="E001"/>
  <outline>
    <contour>
      <point x="185" y="105" type="curve" smooth="yes"/>
      <point x="185" y="172"/>
      <point x="220" y="231"/>
      <point x="220" y="314" type="curve" smooth="yes"/>
      <point x="220" y="399"/>
      <point x="114" y="390"/>
      <point x="114" y="468" type="curve" smooth="yes"/>
      <point x="114" y="516"/>
      <point x="172" y="550"/>
      <point x="329" y="550" type="curve" smooth="yes"/>
      <point x="493" y="550"/>
      <point x="549" y="515"/>
      <point x="549" y="432" type="curve" smooth="yes"/>
      <point x="549" y="289"/>
      <point x="292" y="298"/>
      <point x="292" y="202" type="curve" smooth="yes"/>
      <point x="292" y="130"/>
      <point x="425" y="119"/>
      <point x="425" y="55" type="curve" smooth="yes"/>
      <point x="425" y="9"/>
      <point x="391" y="-5"/>
      <point x="308" y="-5" type="curve" smooth="yes"/>
      <point x="237" y="-5"/>
      <point x="185" y="36"/>
    </contour>
    <contour>
      <point x="87" y="146" type="curve" smooth="yes"/>
      <point x="47" y="146"/>
      <point x="27" y="189"/>
      <point x="27" y="230" type="curve" smooth="yes"/>
      <point x="27" y="303"/>
      <point x="53" y="345"/>
      <point x="97" y="345" type="curve" smooth="yes"/>
      <point x="125" y="345"/>
      <point x="161" y="321"/>
      <point x="161" y="266" type="curve" smooth="yes"/>
      <point x="161" y="184"/>
      <point x="120" y="146"/>
    </contour>
    <contour>
      <point x="499" y="140" type="curve" smooth="yes"/>
      <point x="433" y="140"/>
      <point x="391" y="170"/>
      <point x="391" y="207" type="curve" smooth="yes"/>
      <point x="391" y="238"/>
      <point x="433" y="267"/>
      <point x="505" y="267" type="curve" smooth="yes"/>
      <point x="551" y="267"/>
      <point x="581" y="245"/>
      <point x="581" y="200" type="curve" smooth="yes"/>
      <point x="581" y="160"/>
      <point x="550" y="140"/>
    </contour>
  </outline>
</glyph>
<glyph name="border_4" format="2">
  <advance width="1395"/>
  <unicode hex="E003"/>
  <outline>
    <contour>
      <point x="-80" y="229" type="curve" smooth="yes"/>
      <point x="-55" y="190"/>
      <point x="-33" y="185"/>
      <point x="4" y="206" type="curve" smooth="yes"/>
      <point x="45" y="230"/>
      <point x="87" y="262"/>
      <point x="129" y="283" type="curve" smooth="yes"/>
      <point x="163" y="300"/>
      <point x="186" y="296"/>
      <point x="203" y="274" type="curve" smooth="yes"/>
      <point x="259" y="204"/>
      <point x="313" y="126"/>
      <point x="387" y="37" type="curve" smooth="yes"/>
      <point x="438" y="-24"/>
      <point x="534" y="-25"/>
      <point x="577" y="46" type="curve" smooth="yes"/>
      <point x="662" y="183"/>
      <point x="721" y="299"/>
      <point x="785" y="405" type="curve" smooth="yes"/>
      <point x="799" y="429"/>
      <point x="827" y="429"/>
      <point x="839" y="400" type="curve" smooth="yes"/>
      <point x="877" y="306"/>
      <point x="908" y="190"/>
      <point x="952" y="83" type="curve" smooth="yes"/>
      <point x="986" y="1"/>
      <point x="1047" y="-8"/>
      <point x="1125" y="37" type="curve" smooth="yes"/>
      <point x="1221" y="93"/>
      <point x="1322" y="154"/>
      <point x="1405" y="209" type="curve" smooth="yes"/>
      <point x="1449" y="239"/>
      <point x="1464" y="274"/>
      <point x="1443" y="304" type="curve" smooth="yes"/>
      <point x="1418" y="340"/>
      <point x="1379" y="331"/>
      <point x="1355" y="318" type="curve" smooth="yes"/>
      <point x="1273" y="272"/>
      <point x="1188" y="215"/>
      <point x="1103" y="167" type="curve" smooth="yes"/>
      <point x="1075" y="151"/>
      <point x="1057" y="149"/>
      <point x="1041" y="182" type="curve" smooth="yes"/>
      <point x="990" y="285"/>
      <point x="943" y="418"/>
      <point x="904" y="499" type="curve" smooth="yes"/>
      <point x="856" y="597"/>
      <point x="729" y="601"/>
      <point x="667" y="485" type="curve" smooth="yes"/>
      <point x="630" y="415"/>
      <point x="577" y="292"/>
      <point x="528" y="195" type="curve" smooth="yes"/>
      <point x="510" y="159"/>
      <point x="480" y="157"/>
      <point x="454" y="185" type="curve" smooth="yes"/>
      <point x="386" y="255"/>
      <point x="329" y="323"/>
      <point x="266" y="390" type="curve" smooth="yes"/>
      <point x="228" y="430"/>
      <point x="185" y="437"/>
      <point x="138" y="415" type="curve" smooth="yes"/>
      <point x="75" y="386"/>
      <point x="6" y="345"/>
      <point x="-52" y="311" type="curve" smooth="yes"/>
      <point x="-87" y="290"/>
      <point x="-98" y="257"/>
    </contour>
  </outline>
</glyph>
<glyph name="C.001" format="2">
  <advance width="514"/>
  <anchor x="236" y="-10" name="cedilla"/>
  <anchor x="350" y="708" name="top"/>
  <outline>
    <contour>
      <point x="300" y="33" type="curve" smooth="yes"/>
      <point x="365" y="33"/>
      <point x="422" y="46"/>
      <point x="461" y="79" type="curve" smooth="yes"/>
      <point x="491" y="104"/>
      <point x="473" y="138"/>
      <point x="443" y="138" type="curve" smooth="yes"/>
      <point x="430" y="138"/>
      <point x="421" y="133"/>
      <point x="415" y="130" type="curve" smooth="yes"/>
      <point x="410" y="128"/>
      <point x="405" y="125"/>
      <point x="400" y="123" type="curve" smooth="yes"/>
      <point x="394" y="120"/>
      <point x="389" y="118"/>
      <point x="384" y="116" type="curve" smooth="yes"/>
      <point x="378" y="113"/>
      <point x="371" y="111"/>
      <point x="363" y="109" type="curve" smooth="yes"/>
      <point x="355" y="107"/>
      <point x="348" y="106"/>
      <point x="339" y="105" type="curve" smooth="yes"/>
      <point x="333" y="104"/>
      <point x="325" y="104"/>
      <point x="319" y="104" type="curve" smooth="yes"/>
      <point x="313" y="104"/>
      <point x="308" y="104"/>
      <point x="300" y="104" type="curve" smooth="yes"/>
      <point x="202" y="104"/>
      <point x="135" y="188"/>
      <point x="135" y="296" type="curve" smooth="yes"/>
      <point x="135" y="361"/>
      <point x="161" y="420"/>
      <point x="209" y="446" type="curve"/>
      <point x="169" y="535"/>
      <point x="176" y="556"/>
      <point x="200" y="564" type="curve" smooth="yes"/>
      <point x="221" y="571"/>
      <point x="240" y="562"/>
      <point x="262" y="464" type="curve"/>
      <point x="278" y="467"/>
      <point x="298" y="471"/>
      <point x="316" y="471" type="curve"/>
      <point x="311" y="582"/>
      <point x="322" y="599"/>
      <point x="350" y="599" type="curve" smooth="yes"/>
      <point x="377" y="599"/>
      <point x="385" y="583"/>
      <point x="373" y="465" type="curve"/>
      <point x="389" y="460"/>
      <point x="403" y="457"/>
      <point x="421" y="457" type="curve" smooth="yes"/>
      <point x="458" y="457"/>
      <point x="493" y="490"/>
      <point x="493" y="578" type="curve" smooth="yes"/>
      <point x="493" y="666"/>
      <point x="441" y="705"/>
      <point x="332" y="705" type="curve" smooth="yes"/>
      <point x="177" y="705"/>
      <point x="44" y="576"/>
      <point x="44" y="316" type="curve" smooth="yes"/>
      <point x="44" y="145"/>
      <point x="146" y="33"/>
    </contour>
    <contour>
      <point x="196" y="633" type="line" smooth="yes"/>
      <point x="180" y="646"/>
      <point x="148" y="617"/>
      <point x="165" y="600" type="curve" smooth="yes"/>
      <point x="169" y="596" type="line" smooth="yes"/>
      <point x="183" y="582"/>
      <point x="215" y="618"/>
      <point x="201" y="629" type="curve" smooth="yes"/>
    </contour>
    <contour>
      <point x="26" y="87" type="line" smooth="yes"/>
      <point x="-21" y="47"/>
      <point x="35" y="-14"/>
      <point x="81" y="30" type="curve" smooth="yes"/>
      <point x="275" y="216" type="line" smooth="yes"/>
      <point x="307" y="246"/>
      <point x="269" y="294"/>
      <point x="232" y="262" type="curve" smooth="yes"/>
    </contour>
    <contour>
      <point x="354" y="270" type="curve" smooth="yes"/>
      <point x="383" y="270"/>
      <point x="407" y="294"/>
      <point x="407" y="325" type="curve" smooth="yes"/>
      <point x="407" y="354"/>
      <point x="383" y="378"/>
      <point x="354" y="378" type="curve" smooth="yes"/>
      <point x="323" y="378"/>
      <point x="299" y="354"/>
      <point x="299" y="325" type="curve" smooth="yes"/>
      <point x="299" y="294"/>
      <point x="323" y="270"/>
    </contour>
    <contour>
      <point x="423" y="83" type="line" smooth="yes"/>
      <point x="409" y="125"/>
      <point x="346" y="106"/>
      <point x="355" y="68" type="curve" smooth="yes"/>
      <point x="379" y="-35" type="line" smooth="yes"/>
      <point x="392" y="-93"/>
      <point x="474" y="-68"/>
      <point x="456" y="-14" type="curve" smooth="yes"/>
    </contour>
    <contour>
      <point x="290" y="49" type="line" smooth="yes"/>
      <point x="298" y="91"/>
      <point x="230" y="105"/>
      <point x="222" y="69" type="curve" smooth="yes"/>
      <point x="192" y="-70" type="line" smooth="yes"/>
      <point x="181" y="-122"/>
      <point x="254" y="-138"/>
      <point x="264" y="-88" type="curve" smooth="yes"/>
    </contour>
  </outline>
</glyph>
<glyph name="cedillacomb.case" format="2">
  <anchor x="159" y="0" name="_cedilla"/>
  <anchor x="361" y="550" name="bottom"/>
  <anchor x="356" y="627" name="top"/>
  <outline>
    <contour>
      <point x="234" y="39" type="curve"/>
      <point x="151" y="39" type="line"/>
      <point x="111" y="-2"/>
      <point x="95" y="-30"/>
      <point x="95" y="-61" type="curve" smooth="yes"/>
      <point x="95" y="-94"/>
      <point x="115" y="-120"/>
      <point x="168" y="-133" type="curve" smooth="yes"/>
      <point x="219" y="-145"/>
      <point x="231" y="-161"/>
      <point x="231" y="-186" type="curve" smooth="yes"/>
      <point x="231" y="-211"/>
      <point x="212" y="-227"/>
      <point x="168" y="-227" type="curve" smooth="yes"/>
      <point x="79" y="-227"/>
      <point x="63" y="-146"/>
      <point x="24" y="-146" type="curve" smooth="yes"/>
      <point x="6" y="-146"/>
      <point x="-7" y="-157"/>
      <point x="-7" y="-177" type="curve" smooth="yes"/>
      <point x="-7" y="-231"/>
      <point x="63" y="-302"/>
      <point x="165" y="-302" type="curve" smooth="yes"/>
      <point x="255" y="-302"/>
      <point x="324" y="-259"/>
      <point x="324" y="-181" type="curve" smooth="yes"/>
      <point x="324" y="-123"/>
      <point x="288" y="-90"/>
      <point x="233" y="-76" type="curve" smooth="yes"/>
      <point x="183" y="-63"/>
      <point x="175" y="-54"/>
      <point x="175" y="-40" type="curve" smooth="yes"/>
      <point x="175" y="-26"/>
      <point x="187" y="-3"/>
    </contour>
  </outline>
</glyph>
<glyph name="dieresiscomb.case" format="2">
  <anchor x="206" y="700" name="_top"/>
  <anchor x="361" y="550" name="bottom"/>
  <anchor x="356" y="627" name="top"/>
  <outline>
    <contour>
      <point x="121" y="762" type="curve" smooth="yes"/>
      <point x="158" y="762"/>
      <point x="189" y="793"/>
      <point x="189" y="832" type="curve" smooth="yes"/>
      <point x="189" y="869"/>
      <point x="158" y="900"/>
      <point x="121" y="900" type="curve" smooth="yes"/>
      <point x="82" y="900"/>
      <point x="51" y="869"/>
      <point x="51" y="832" type="curve" smooth="yes"/>
      <point x="51" y="793"/>
      <point x="82" y="762"/>
    </contour>
    <contour>
      <point x="291" y="757" type="curve" smooth="yes"/>
      <point x="327" y="757"/>
      <point x="356" y="785"/>
      <point x="356" y="823" type="curve" smooth="yes"/>
      <point x="356" y="859"/>
      <point x="327" y="888"/>
      <point x="291" y="888" type="curve" smooth="yes"/>
      <point x="253" y="888"/>
      <point x="225" y="859"/>
      <point x="225" y="823" type="curve" smooth="yes"/>
      <point x="225" y="785"/>
      <point x="253" y="757"/>
    </contour>
  </outline>
</glyph>
<glyph name="dotaccentcomb.case" format="2">
  <anchor x="110" y="700" name="_top"/>
  <anchor x="361" y="550" name="bottom"/>
  <anchor x="356" y="627" name="top"/>
  <outline>
    <contour>
      <point x="110" y="752" type="curve" smooth="yes"/>
      <point x="148" y="752"/>
      <point x="177" y="781"/>
      <point x="177" y="822" type="curve" smooth="yes"/>
      <point x="177" y="859"/>
      <point x="148" y="888"/>
      <point x="110" y="888" type="curve" smooth="yes"/>
      <point x="70" y="888"/>
      <point x="41" y="859"/>
      <point x="41" y="822" type="curve" smooth="yes"/>
      <point x="41" y="781"/>
      <point x="70" y="752"/>
    </contour>
  </outline>
</glyph>
<glyph name="gravecomb.case" format="2">
  <anchor x="208" y="700" name="_top"/>
  <anchor x="361" y="550" name="bottom"/>
  <anchor x="356" y="627" name="top"/>
  <outline>
    <contour>
      <point x="182" y="758" type="curve" smooth="yes"/>
      <point x="200" y="745"/>
      <point x="217" y="747"/>
      <point x="227" y="757" type="curve" smooth="yes"/>
      <point x="237" y="767"/>
      <point x="237" y="788"/>
      <point x="222" y="808" type="curve" smooth="yes"/>
      <point x="193" y="847"/>
      <point x="148" y="903"/>
      <point x="123" y="934" type="curve" smooth="yes"/>
      <point x="98" y="964"/>
      <point x="58" y="967"/>
      <point x="37" y="946" type="curve" smooth="yes"/>
      <point x="12" y="921"/>
      <point x="10" y="879"/>
      <point x="47" y="852" type="curve" smooth="yes"/>
      <point x="88" y="822"/>
      <point x="140" y="786"/>
    </contour>
  </outline>
</glyph>
<glyph name="hungarumlautcomb.case" format="2">
  <anchor x="190" y="700" name="_top"/>
  <anchor x="361" y="550" name="bottom"/>
  <anchor x="356" y="627" name="top"/>
  <outline>
    <contour>
      <point x="179" y="800" type="curve" smooth="yes"/>
      <point x="190" y="826"/>
      <point x="205" y="862"/>
      <point x="219" y="900" type="curve" smooth="yes"/>
      <point x="232" y="934"/>
      <point x="233" y="963"/>
      <point x="212" y="972" type="curve" smooth="yes"/>
      <point x="189" y="982"/>
      <point x="166" y="968"/>
      <point x="151" y="942" type="curve" smooth="yes"/>
      <point x="131" y="910"/>
      <point x="110" y="874"/>
      <point x="90" y="836" type="curve" smooth="yes"/>
      <point x="75" y="807"/>
      <point x="77" y="776"/>
      <point x="104" y="763" type="curve" smooth="yes"/>
      <point x="131" y="750"/>
      <point x="162" y="761"/>
    </contour>
    <contour>
      <point x="320" y="778" type="curve" smooth="yes"/>
      <point x="345" y="807"/>
      <point x="372" y="843"/>
      <point x="394" y="870" type="curve" smooth="yes"/>
      <point x="416" y="898"/>
      <point x="420" y="936"/>
      <point x="389" y="955" type="curve" smooth="yes"/>
      <point x="364" y="971"/>
      <point x="332" y="965"/>
      <point x="314" y="934" type="curve" smooth="yes"/>
      <point x="295" y="902"/>
      <point x="275" y="864"/>
      <point x="257" y="826" type="curve" smooth="yes"/>
      <point x="240" y="790"/>
      <point x="238" y="765"/>
      <point x="255" y="754" type="curve" smooth="yes"/>
      <point x="274" y="742"/>
      <point x="300" y="755"/>
    </contour>
  </outline>
</glyph>
<glyph name="macroncomb.case" format="2">
  <anchor x="185" y="700" name="_top"/>
  <anchor x="361" y="550" name="bottom"/>
  <anchor x="356" y="627" name="top"/>
  <outline>
    <contour>
      <point x="77" y="839" type="curve" smooth="yes"/>
      <point x="45" y="837"/>
      <point x="28" y="823"/>
      <point x="28" y="802" type="curve" smooth="yes"/>
      <point x="28" y="776"/>
      <point x="51" y="759"/>
      <point x="86" y="757" type="curve" smooth="yes"/>
      <point x="145" y="754"/>
      <point x="236" y="753"/>
      <point x="297" y="755" type="curve" smooth="yes"/>
      <point x="335" y="756"/>
      <point x="354" y="771"/>
      <point x="354" y="802" type="curve" smooth="yes"/>
      <point x="354" y="826"/>
      <point x="335" y="843"/>
      <point x="303" y="844" type="curve" smooth="yes"/>
      <point x="239" y="845"/>
      <point x="145" y="843"/>
    </contour>
  </outline>
</glyph>
<glyph name="ogonekcomb.case" format="2">
  <anchor x="194" y="0" name="_ogonek"/>
  <anchor x="361" y="550" name="bottom"/>
  <anchor x="356" y="627" name="top"/>
  <outline>
    <contour>
      <point x="239" y="28" type="curve"/>
      <point x="158" y="28" type="line"/>
      <point x="81" y="-30"/>
      <point x="49" y="-88"/>
      <point x="49" y="-159" type="curve" smooth="yes"/>
      <point x="49" y="-228"/>
      <point x="89" y="-266"/>
      <point x="156" y="-266" type="curve" smooth="yes"/>
      <point x="210" y="-266"/>
      <point x="243" y="-244"/>
      <point x="243" y="-213" type="curve" smooth="yes"/>
      <point x="243" y="-190"/>
      <point x="231" y="-175"/>
      <point x="207" y="-175" type="curve" smooth="yes"/>
      <point x="185" y="-175"/>
      <point x="180" y="-177"/>
      <point x="160" y="-177" type="curve" smooth="yes"/>
      <point x="129" y="-177"/>
      <point x="119" y="-164"/>
      <point x="119" y="-139" type="curve" smooth="yes"/>
      <point x="119" y="-83"/>
      <point x="166" y="-29"/>
    </contour>
  </outline>
</glyph>
<glyph name="ringcomb.case" format="2">
  <anchor x="150" y="700" name="_top"/>
  <anchor x="361" y="550" name="bottom"/>
  <anchor x="356" y="627" name="top"/>
  <outline>
    <contour>
      <point x="141" y="733" type="curve" smooth="yes"/>
      <point x="202" y="733"/>
      <point x="253" y="765"/>
      <point x="253" y="842" type="curve" smooth="yes"/>
      <point x="253" y="914"/>
      <point x="206" y="962"/>
      <point x="143" y="962" type="curve" smooth="yes"/>
      <point x="77" y="962"/>
      <point x="30" y="913"/>
      <point x="30" y="848" type="curve" smooth="yes"/>
      <point x="30" y="774"/>
      <point x="74" y="733"/>
    </contour>
    <contour>
      <point x="142" y="804" type="curve" smooth="yes"/>
      <point x="107" y="804"/>
      <point x="92" y="826"/>
      <point x="92" y="859" type="curve" smooth="yes"/>
      <point x="92" y="890"/>
      <point x="116" y="906"/>
      <point x="148" y="906" type="curve" smooth="yes"/>
      <point x="179" y="906"/>
      <point x="197" y="883"/>
      <point x="197" y="852" type="curve" smooth="yes"/>
      <point x="197" y="821"/>
      <point x="173" y="804"/>
    </contour>
  </outline>
</glyph>
<glyph name="tildecomb.case" format="2">
  <anchor x="201" y="700" name="_top"/>
  <anchor x="361" y="550" name="bottom"/>
  <anchor x="356" y="627" name="top"/>
  <outline>
    <contour>
      <point x="21" y="790" type="curve" smooth="yes"/>
      <point x="16" y="763"/>
      <point x="25" y="741"/>
      <point x="47" y="738" type="curve" smooth="yes"/>
      <point x="70" y="735"/>
      <point x="84" y="749"/>
      <point x="91" y="773" type="curve" smooth="yes"/>
      <point x="96" y="791"/>
      <point x="108" y="802"/>
      <point x="127" y="802" type="curve" smooth="yes"/>
      <point x="165" y="802"/>
      <point x="201" y="745"/>
      <point x="273" y="745" type="curve" smooth="yes"/>
      <point x="340" y="745"/>
      <point x="378" y="774"/>
      <point x="389" y="840" type="curve" smooth="yes"/>
      <point x="395" y="876"/>
      <point x="388" y="896"/>
      <point x="364" y="900" type="curve" smooth="yes"/>
      <point x="340" y="903"/>
      <point x="325" y="889"/>
      <point x="320" y="860" type="curve" smooth="yes"/>
      <point x="315" y="831"/>
      <point x="305" y="822"/>
      <point x="283" y="822" type="curve" smooth="yes"/>
      <point x="244" y="822"/>
      <point x="195" y="889"/>
      <point x="130" y="889" type="curve" smooth="yes"/>
      <point x="69" y="889"/>
      <point x="29" y="839"/>
    </contour>
  </outline>
</glyph>
